<svg xmlns="http://www.w3.org/2000/svg" width="385.8" height="337.285" viewBox="0 0 385.8 337.285">
  <g id="Car" transform="translate(-57.2 -81.215)">
    <g id="car-2" data-name="car">
      <rect id="Rectangle_228" data-name="Rectangle 228" width="282.6" height="15" transform="translate(89.1 372)" fill="#000005"/>
      <path id="Path_2778" data-name="Path 2778" d="M371.7,387.5H89.1a.472.472,0,0,1-.5-.5V372a.472.472,0,0,1,.5-.5H371.7a.472.472,0,0,1,.5.5v15a.472.472,0,0,1-.5.5Zm-282.1-1H371.2v-14H89.6Z" fill="#000005"/>
      <ellipse id="Ellipse_79" data-name="Ellipse 79" cx="24.7" cy="24.1" rx="24.7" ry="24.1" transform="translate(166.1 367)" fill="#000005"/>
      <path id="Path_2779" data-name="Path 2779" d="M214,389.3a24.031,24.031,0,0,1-15,22c-8.8,3.7-19.9,2-26.6-5-6.2-6.5-5.9-17.8-1.5-25.2a24.913,24.913,0,0,1,24.4-11.8,23.512,23.512,0,0,1,14,6.8c3.3,3.4,4.7,8.4,4.7,13.2,0,1,1,2.1,1.5,2.7.1.1,1.6,1.6,1.6,1-.1-10.9-7.6-21.6-17.6-25.9a25.683,25.683,0,0,0-28.9,6.3c-7.2,8.2-7.7,20-2.2,29.2a30.93,30.93,0,0,0,12,11.8,26.349,26.349,0,0,0,15.4,2.6,24.861,24.861,0,0,0,21.3-24c0-.9-1-2-1.5-2.7C215.4,390.1,214,388.7,214,389.3Z" fill="#000005"/>
      <ellipse id="Ellipse_80" data-name="Ellipse 80" cx="24.7" cy="24.1" rx="24.7" ry="24.1" transform="translate(326.9 364.5)" fill="#000005"/>
      <path id="Path_2780" data-name="Path 2780" d="M374,389.4c-.1,9-5.5,17.7-14.2,20.6a23.772,23.772,0,0,1-25.3-7.5,23.252,23.252,0,0,1-2.1-26.4,21.273,21.273,0,0,1,23-9.5A23.809,23.809,0,0,1,374,389.4c0,1.8,4.6.1,4.6-1.6a25.231,25.231,0,0,0-17.5-23.6c-10.8-3.5-23,.4-30.4,8.9a24.818,24.818,0,0,0-2.3,29.4c5.9,9.3,17.4,13.5,28,11.1,12.1-2.7,22.1-13,22.1-25.8C378.6,386,374,387.7,374,389.4Z" fill="#000005"/>
      <path id="Path_2781" data-name="Path 2781" d="M67.8,377.4s-4.3-45.6,2.5-62.9,36.4-87.6,43.8-91.3S272,217,288,225s39.5,77.1,39.5,77.1,103,15.4,108.6,31.5-3.7,41.9-3.7,41.9Z" fill="#2462eb"/>
      <path id="Path_2782" data-name="Path 2782" d="M69.8,378.8a270.5,270.5,0,0,1-.9-44.1,101.816,101.816,0,0,1,1.8-13.5,54.383,54.383,0,0,1,2.9-8.6c2.8-6.9,5.7-13.8,8.6-20.6,7.3-17.1,14.7-34.2,23.2-50.7,2.6-5.1,5.2-10.7,9-15,1.6-1.8,3.4-1.9,5.9-2.2,11.3-1.4,22.7-1.6,34.1-1.9,17.2-.5,34.3-.8,51.5-.7,16.9,0,33.9.3,50.8,1.1,6.4.3,12.8.7,19.1,1.4,2.4.3,4.7.6,7,1a27.969,27.969,0,0,1,2.8.6l1.2.3c.3.1.5.1.8.2l.8.3.4.2.2.1.3.2.7.5c-.4-.3.2.2.3.3a7.359,7.359,0,0,0,.6.5,44.021,44.021,0,0,1,5.7,7.2,165.23,165.23,0,0,1,11.9,22.4c6.1,13.3,11.5,27,16.3,40.9.3.8.5,1.6.8,2.4a5.1,5.1,0,0,0,3.2,2.9c15.5,2.3,31,5.2,46.4,8.5,11.9,2.5,23.7,5.3,35.3,8.9a141.1,141.1,0,0,1,14.2,5.1c1.8.8,3.6,1.7,5.2,2.6a17.39,17.39,0,0,1,1.8,1.1,5.5,5.5,0,0,1,.9.7c-.6-.5.3.2.4.4.5.4-.2-.3.3.3.4.5-.1-.3.3.3.3.5-.1-.2.2.4s.1,0,.3.8a40.184,40.184,0,0,1,1.6,11.9,88.46,88.46,0,0,1-3.4,22.2c-.5,2-1.1,4.1-1.8,6.1-.1.3-.2.7-.3,1,.4-.7.5-.3.2-.4a5.437,5.437,0,0,0-1.8,0l-27.3.1-52.5.3-67,.3-72.1.4-66.3.3-51.1.3-25.2.1H65.9c-1,0,.4,1.8.6,2a3.918,3.918,0,0,0,2.7,1.5H79l26.5-.1,39.2-.2,47.9-.2,52.4-.3,52.9-.3,49.4-.2,41.7-.2,30-.1c4.7,0,9.5.2,14.2-.1h.6c.2,0,.3-.2.3-.4a110.532,110.532,0,0,0,3.6-13.7c1.7-8.3,2.7-17.2.9-25.6a15.57,15.57,0,0,0-6.9-9.9,60.868,60.868,0,0,0-12.2-6.2c-11.6-4.5-23.8-7.6-36-10.4-12.4-2.9-24.9-5.4-37.5-7.6-4.4-.8-8.9-1.6-13.3-2.3a46.308,46.308,0,0,0-6.5-1h-.3l3.2,2.8c-3.6-10.8-7.8-21.4-12.2-31.9-3.6-8.5-7.3-16.9-11.7-25.1-3.5-6.5-7.3-13.3-12.6-18.6a20.722,20.722,0,0,0-11.2-5.9,128.807,128.807,0,0,0-15.2-1.9c-15.7-1.3-31.6-1.6-47.4-1.8-18-.2-36-.2-53.9.2-13.9.3-27.8.6-41.7,1.6a56.867,56.867,0,0,0-10.1,1.2c-3.1.7-4.9,4.4-6.4,6.9a218.841,218.841,0,0,0-10.6,20.4c-4.2,8.8-8.2,17.8-12.2,26.7-3.6,8.2-7.2,16.5-10.6,24.9-2.4,5.8-5.3,11.8-6.8,17.9-2.2,9.5-2.4,19.5-2.4,29.2,0,8.3.4,16.6,1,24.9.1,1.4.2,2.7.3,4a4.064,4.064,0,0,0,1.9,2.5C68,378.6,69.9,379.7,69.8,378.8Z" fill="#2462eb"/>
      <path id="Path_2783" data-name="Path 2783" d="M177.4,239l-.4,59.5a4.567,4.567,0,0,0,4.5,4.6h.1c12.1-.2,24.7-.4,36.9-.7a4.655,4.655,0,0,0,4.5-4.7,5.067,5.067,0,0,0-.2-1.3l-19.5-58.6a4.537,4.537,0,0,0-4.3-3.1c-5.8-.1-11.5-.1-17-.2a4.562,4.562,0,0,0-4.6,4.5Z" fill="#fff"/>
      <path id="Path_2784" data-name="Path 2784" d="M175.3,238.5l-.2,31.6-.1,20.5v6c0,2.3.3,4.5,2,6.4,2.5,2.7,5.8,2.4,9.2,2.4l11.4-.2L209,305l5.4-.1a34.965,34.965,0,0,0,5.6-.2c4.2-.6,6.2-4.8,4.9-8.6-.4-1.4-.9-2.8-1.4-4.1l-13-39.1-4.6-14c-.8-2.5-2-4.8-4.6-5.9a12.425,12.425,0,0,0-4.7-.6l-5.9-.1-5.3-.1a19.574,19.574,0,0,0-5.4.2,6.219,6.219,0,0,0-4.7,6.1c-.1,2.4,4.2,4.2,4.4,1a3.007,3.007,0,0,1,1.5-2.4c1.1-.7,2.7-.4,3.9-.4l10.7.1h3a3.722,3.722,0,0,1,1.8.2,1.143,1.143,0,0,1,.8.7,1.884,1.884,0,0,1,.2.8l4.1,12.2L218.5,289l1.9,5.6c.3,1,.9,2.2.6,3.2-.8,2.9-4.5,2.2-6.7,2.3l-10.7.2c-7.1.1-14.2.3-21.4.4-1.5,0-2.8-.1-2.9-1.8v-6.1l.1-18.8.2-34v-.6C179.6,237.1,175.3,235.3,175.3,238.5Z" fill="#fff"/>
      <path id="Path_2785" data-name="Path 2785" d="M121.3,235.6c-8.2,2.6-33.9,69.4-27.5,68.7,0,0,30.1-.3,68.1-.9a4.481,4.481,0,0,0,4.5-4.5l1.1-59.9a4.722,4.722,0,0,0-4.5-4.7h-.1C140.8,234.4,123.9,234.7,121.3,235.6Z" fill="#fff"/>
      <path id="Path_2786" data-name="Path 2786" d="M119.6,233.8c-1.9.6-3.4,2.9-4.5,4.5a91.469,91.469,0,0,0-5.5,9.6A290.648,290.648,0,0,0,98,274.8c-2.8,7.5-5.7,15.2-7.1,23.1-.3,2-.8,4.4.5,6.1,1.5,2.1,3.4,2,5.6,2,10.7-.1,21.5-.2,32.2-.4,8.9-.1,17.7-.2,26.6-.4,2.5,0,4.9,0,7.4-.1a5.257,5.257,0,0,0,4.2-2.1,6.3,6.3,0,0,0,1.1-3.5l.4-19.4.5-28.2.2-9.4v-2.1a7.536,7.536,0,0,0-2.9-5.9,8.929,8.929,0,0,0-5.6-2h-7.2c-4.3,0-8.5,0-12.8.1-5.9.1-11.8.1-17.7.6a23.175,23.175,0,0,0-3.8.6c-1.1.3,0,1.9.4,2.2a3.433,3.433,0,0,0,3,1.2c.5-.1-.1,0,.2-.1a2.485,2.485,0,0,1,.8-.1,17.851,17.851,0,0,1,2.3-.2c2.3-.2,4.7-.3,7.1-.3,7.4-.2,14.8-.3,22.1-.3h6.9c1.4,0,2.5-.4,2.8,1a8.083,8.083,0,0,1,.1,1.6l-.1,7.2-.5,26.1-.4,22.7c0,1.9.2,4.1-1.2,5.6s-3.3,1.2-5.1,1.2l-7.1.1-13.2.2c-12.8.2-25.6.3-38.3.5-2.3,0-4.6-.1-6.9.1-.5,0,.1,0,.3.1a4.294,4.294,0,0,1,1.9,1.4c-.2-.2.3.5.2.3s0,.1.1.2c0-.1-.1-.3-.1-.4s-.1-.7,0-.2v-1.3a47.021,47.021,0,0,1,1.7-8.3c1.1-4,2.4-7.9,3.7-11.7,3.1-8.9,6.7-17.7,10.7-26.3,1.7-3.7,3.5-7.3,5.5-10.8a29.808,29.808,0,0,1,4.8-6.8l.5-.5c.1-.1.2-.1.2-.2.2-.2-.2.1,0,0a3.552,3.552,0,0,1,.9-.4c1-.4-.1-1.9-.4-2.3A2.9,2.9,0,0,0,119.6,233.8Z" fill="#fff"/>
      <path id="Path_2787" data-name="Path 2787" d="M314.6,297.9c-1.4-4.3-20.5-56.7-26.1-59.8-2.1-1.1-24.3-2.1-51.8-2.8a4.586,4.586,0,0,0-4.7,4.5v.8l8.6,57.3a4.466,4.466,0,0,0,4.6,3.9C284.1,300.8,315.1,299.5,314.6,297.9Z" fill="#fff"/>
      <path id="Path_2788" data-name="Path 2788" d="M317,297.5c-1.9-5.7-4.1-11.3-6.2-16.9-3.5-9.2-7.1-18.4-11.1-27.3a103.991,103.991,0,0,0-5.2-10.6c-.9-1.7-2.1-4.1-3.8-5.1a11.562,11.562,0,0,0-3.2-.8c-2-.3-3.9-.4-5.9-.6-6.2-.5-12.4-.7-18.6-1-8.5-.3-17-.8-25.5-.8-3.4,0-7.7,1.3-8.1,5.2a13.4,13.4,0,0,0,.1,2l2.8,18.8,3.9,26.5,1.3,8.8c.4,2.3.5,4.6,2.9,5.9,1.7,1,3.7.8,5.6.8l6.9-.2,13-.3c7.6-.2,15.1-.5,22.7-.9,5.5-.2,11-.5,16.5-1,3.3-.3,6.8-.4,9.9-1.4.5.1,2.2-.4,2-1.1-.3-1.2-5.2-.2-5,.7,0-.2.4-.3.5-.4s.2-.1,0,0c-.4.1.2-.1.3-.1-.2,0-.4.1-.6.1-.4.1.6-.1.2,0l-.4.1-.9.1-1,.1h-.7c-4.5.5-9,.7-13.5,1-14.9.8-29.7,1.2-44.6,1.6l-3.2.1a7.484,7.484,0,0,1-2.6-.1,4.2,4.2,0,0,1-2.6-3.3,3.083,3.083,0,0,1-.1-1l-1-6.9-3.6-24.4L235,243.4a26.985,26.985,0,0,1-.6-4.1,3.7,3.7,0,0,1,.6-2.1,5.5,5.5,0,0,1,.7-.9c.3-.3,1.2-.6.2-.4s-.3.1,0,.1h2.5l3.4.1c4.1.1,8.3.2,12.4.4,6.7.2,13.5.5,20.2.9a99.893,99.893,0,0,1,11,1l.4.1h0a1.087,1.087,0,0,0,.5.1c-.2-.1-.1-.1.1.1l.4.3a13.014,13.014,0,0,1,1.8,2.3,76.939,76.939,0,0,1,4.7,9c3.9,8.4,7.4,17.1,10.8,25.8q3.9,10.05,7.5,20.1c.2.6.4,1.2.6,1.9C312.5,299.4,317.3,298.3,317,297.5Z" fill="#fff"/>
      <rect id="Rectangle_229" data-name="Rectangle 229" width="29.6" height="14.6" transform="translate(59.4 373)" fill="#fff"/>
      <path id="Path_2789" data-name="Path 2789" d="M87.4,386.2H57.8l3.9,2.4V374l-.6.5H90.7l-3.9-2.4v14.6c0,1.3,4.5,3.2,4.5,1.9V374c0-.6-1.1-1.3-1.5-1.6a4.069,4.069,0,0,0-2.4-.8H57.8a.56.56,0,0,0-.6.5v14.6c0,.6,1.1,1.3,1.5,1.6a4.069,4.069,0,0,0,2.4.8H90.7c1.1,0,.2-1.2-.2-1.5A4.483,4.483,0,0,0,87.4,386.2Z" fill="#000005"/>
      <rect id="Rectangle_230" data-name="Rectangle 230" width="127.1" height="14.6" transform="translate(313.5 373.5)" fill="#fff"/>
      <path id="Path_2790" data-name="Path 2790" d="M441.2,386.3H319.3a41.7,41.7,0,0,0-5,0h-.2l1.8,1.5V373.2l-3,2.3H434.8a41.7,41.7,0,0,0,5,0h.2l-1.8-1.4v14.6c0,2.5,4.8,1.4,4.8-.9V373.2a1.746,1.746,0,0,0-1.8-1.5H329.7c-5.1,0-10.3-.1-15.4,0h-.2c-1.2,0-3,.9-3,2.3v14.6c0,.9,1,1.5,1.8,1.5H424.3c5.1,0,10.3.1,15.4,0h.2a3.1,3.1,0,0,0,3-1.8A1.591,1.591,0,0,0,441.2,386.3Z" fill="#000005"/>
      <path id="Path_2791" data-name="Path 2791" d="M97.9,369.6c.2-.5.5-.9.7-1.3.1-.2.3-.4.4-.6s.2-.2.2-.3c.3-.4.1-.1.1-.1a12.165,12.165,0,0,1,1.5-1.7,25.484,25.484,0,0,1,10.9-6.8,34.122,34.122,0,0,1,19-.6,23.523,23.523,0,0,1,9.1,4.8l.6.5.2.2,1,1c.6.7,1.2,1.4,1.7,2.1.2.3.4.6.7,1s-.2-.4,0,0l.2.4c.3.5.6,1.1.9,1.7a2.713,2.713,0,0,0,2.6,1.4l18.4-.2,39.4-.3,37.3-.3,10.6-.1h2c1.6-.1,2.6-1.6,3.6-2.5,6.3-5.7,14.9-10.4,23.6-11.1,8.3-.7,17,2.4,21.5,9.9a24.15,24.15,0,0,1,2.7,6.4,2.617,2.617,0,0,0,2.8,2c1-.1,2.5-1,2.2-2.2a26.061,26.061,0,0,0-8-13.5,26.954,26.954,0,0,0-13.3-6.3c-10.8-2-21.9,2.1-30.6,8.4a39.138,39.138,0,0,0-6.6,5.6l1.6-.7-10.8.1-25.7.2-31.2.3-26.9.2-8.9.1c-1.4,0-2.9-.1-4.2,0H147l2.6,1.4a19.278,19.278,0,0,0-3.5-5.4A28.3,28.3,0,0,0,134,355c-11.8-4.1-26.8-2-36,6.7a19.512,19.512,0,0,0-4.8,6.2c-1.1,2.4,3.6,4.1,4.7,1.7Z" fill="#000005"/>
      <ellipse id="Ellipse_81" data-name="Ellipse 81" cx="24.7" cy="25.2" rx="24.7" ry="25.2" transform="translate(96.7 366)" fill="#000005"/>
      <path id="Path_2792" data-name="Path 2792" d="M144.4,389.8a24.848,24.848,0,0,1-15.2,22.8c-8.8,3.6-19.6,1.4-25.8-5.9s-6.3-18.2-1.6-26.4a23.918,23.918,0,0,1,24.4-11.8,22.5,22.5,0,0,1,13.2,7.2,22.267,22.267,0,0,1,5,14.1,4.27,4.27,0,0,0,1.6,3c.5.4,1.8,1,1.8-.2a29.558,29.558,0,0,0-17.7-26.8,25.329,25.329,0,0,0-29.1,7.1A27.656,27.656,0,0,0,98.7,404c5.6,9.8,16.5,16.1,27.9,14.1,12.3-2.1,21.1-13.2,21.2-25.6a4.27,4.27,0,0,0-1.6-3C145.7,389.1,144.4,388.6,144.4,389.8Z" fill="#000005"/>
      <ellipse id="Ellipse_82" data-name="Ellipse 82" cx="24.7" cy="25.2" rx="24.7" ry="25.2" transform="translate(257.5 363.3)" fill="#000005"/>
      <path id="Path_2793" data-name="Path 2793" d="M304.5,387.6a25.35,25.35,0,0,1-15,23.1,22.733,22.733,0,0,1-14.1,1.3,19.945,19.945,0,0,1-10.4-7.2,25.367,25.367,0,0,1-2.1-27.8c4.7-8.5,14.4-13.8,24.1-12.3,10.8,1.7,17.5,12.7,17.5,22.9,0,1.4,4.6,2.4,4.6,1.8-.1-11.4-7.4-21-17.8-25.1s-22.5-2.1-30,6.5a26.084,26.084,0,0,0-2.5,30.2,29.851,29.851,0,0,0,29,13.5,25.707,25.707,0,0,0,21.4-25.1C309.2,388,304.5,387,304.5,387.6Z" fill="#000005"/>
      <path id="Path_2794" data-name="Path 2794" d="M390.8,331.9H350a8.066,8.066,0,0,0-8.1,8.1v28.8H399V340a8.283,8.283,0,0,0-8.2-8.1Z" fill="#fff"/>
      <path id="Path_2795" data-name="Path 2795" d="M389.7,329.8H356c-4.7,0-10.7-1-14,3.3-1.7,2.2-1.8,4.7-1.8,7.3v26.9a5.23,5.23,0,0,0,1,2.3c.3.4,1,1.5,1.6,1.5H400c.3,0,.3-.2.3-.5,0-9.6.2-19.2,0-28.8-.1-5.7-4.8-11.9-10.6-12-.9,0,.9,4.3,2.2,4.3,1.7,0,4.1.6,5.1,2a5.753,5.753,0,0,1,.5,2.6v28.4l.4-.5H340.8l2.6,3.8V345.5a26.257,26.257,0,0,1,.2-5.6,7.934,7.934,0,0,1,7.9-5.9H392C392.8,334.1,390.9,329.8,389.7,329.8Z" fill="#000005"/>
      <line id="Line_71" data-name="Line 71" x2="0.4" y2="35.7" transform="translate(357.2 333.1)" fill="none"/>
      <path id="Path_2796" data-name="Path 2796" d="M355.1,334.4l.3,31.3v4.4c0,.3,2.2-.8,2.4-.9.5-.3,1.9-1,1.9-1.7l-.4-31.3v-4.4c0-.3-2.2.8-2.4.9-.4.3-1.8,1-1.8,1.7Z" fill="#000005"/>
      <line id="Line_72" data-name="Line 72" x2="0.8" y2="36.5" transform="translate(370.3 331.5)" fill="none"/>
      <path id="Path_2797" data-name="Path 2797" d="M367.9,331.9l.7,32,.1,4.5c0,.2,5-.1,5-.7l-.7-32-.1-4.5C372.8,331,367.8,331.3,367.9,331.9Z" fill="#000005"/>
      <line id="Line_73" data-name="Line 73" x1="0.2" y2="36.3" transform="translate(384.7 332.2)" fill="none"/>
      <path id="Path_2798" data-name="Path 2798" d="M383,330.8l-.2,31.7V367c0,.8,1.5,1.9,2,2.4.2.1,1.8,1.3,1.8.6l.2-31.7v-4.5c0-.8-1.4-1.9-2-2.3-.2-.3-1.8-1.4-1.8-.7Z" fill="#000005"/>
      <path id="Path_2799" data-name="Path 2799" d="M276.5,304l-3.2-10.5a2.636,2.636,0,0,0-2.5-1.6l-18.4.6-2.6.1c-1.1,0-2.4.6-2.3,2a2.425,2.425,0,0,0,2.6,2.1l18.4-.6,2.6-.1-2.5-1.6,3.2,10.5c.7,2.5,5.5,2,4.7-.9Z" fill="#000005"/>
      <path id="Path_2800" data-name="Path 2800" d="M306.4,303l-3.5-10.5c-.4-1-2.9-1-3.6-.9l-20,1.4c-.7,0-1.8.5-1,1.2a5.029,5.029,0,0,0,3.4.7l20-1.4-3.6-.9,3.5,10.5C301.9,304.3,306.8,304.4,306.4,303Z" fill="#000005"/>
      <circle id="Ellipse_83" data-name="Ellipse 83" cx="8" cy="8" r="8" transform="translate(311.9 333.1)" fill="#fff"/>
      <path id="Path_2801" data-name="Path 2801" d="M325.4,341.1a7.74,7.74,0,0,1-4.4,7l-.9.3-.4.1c.3-.1-.4,0-.1,0h.5a3.091,3.091,0,0,1-.8-.2,7.79,7.79,0,0,1-3.4-2.6,7.975,7.975,0,0,1-.6-8.4,7.71,7.71,0,0,1,3.1-3.1,5.228,5.228,0,0,1,1.6-.6c.3-.1-.3,0,.2,0h-.5c-.2,0-.5-.1,0,0l.3.1a7.675,7.675,0,0,1,5.4,7.4c.1.8,5.1.8,5.1,0a8.341,8.341,0,0,0-6.1-7.9,16.262,16.262,0,0,0-7.9-.2,9.262,9.262,0,0,0-4.8,2.7,8.126,8.126,0,0,0-.8,9.9c2.5,3.8,7.4,4.5,11.6,3.9a9.372,9.372,0,0,0,5.8-2.8,8.152,8.152,0,0,0,2.2-5.5C330.4,340.3,325.4,340.3,325.4,341.1Z" fill="#000005"/>
      <circle id="Ellipse_84" data-name="Ellipse 84" cx="8" cy="8" r="8" transform="translate(409.9 333.3)" fill="#fff"/>
      <path id="Path_2802" data-name="Path 2802" d="M423.4,341.8a7.98,7.98,0,0,1-1.3,4.2,8.635,8.635,0,0,1-1.3,1.4,4.233,4.233,0,0,1-.7.5c-.1.1-.2.1-.4.2.3-.1-.3.1-.4.1H419c.3-.1.3-.1.1,0-.4.1.6-.1-.1,0s.2,0-.2,0a4.672,4.672,0,0,1-1.7-.3,7.469,7.469,0,0,1-3.3-2.5,7.824,7.824,0,0,1-.5-8.2,4.427,4.427,0,0,1,1.2-1.5c.2-.2.5-.4.6-.5l.4-.2c.1,0,.7-.4.4-.3l.4-.2.2-.1h0c.4-.1.6-.1,0,0,.7-.1-.3,0,.1,0h.8c.4,0-.4-.1.2,0,.2,0,.4.1.6.1a7.411,7.411,0,0,1,5.2,7.3c0,1.1,5,.6,4.9-.9a8.81,8.81,0,0,0-6.1-8.1c-4.2-1.2-9.6-.2-12.6,3.2a8.571,8.571,0,0,0-.8,10.2c2.3,3.6,6.9,4.6,10.9,3.8,4.6-.9,8.6-4.2,8.6-9.2C428.3,339.8,423.4,340.3,423.4,341.8Z" fill="#000005"/>
      <path id="Path_2803" data-name="Path 2803" d="M172.4,312.2c0,12.1-.3,24.2-.5,36.3,0,2.1-.1,4.2-.1,6.3a3.983,3.983,0,0,0,1.6,3.1c.5.4,1.9,1,1.9-.2,0-12.1.3-24.2.5-36.2,0-2.1.1-4.2.1-6.3a3.983,3.983,0,0,0-1.6-3.1C173.8,311.5,172.4,310.9,172.4,312.2Z" fill="#fff"/>
      <path id="Path_2804" data-name="Path 2804" d="M186.3,324.6h3.9c.3,0,.8,0,1-.4a.905.905,0,0,0-.3-1,3.956,3.956,0,0,0-1.5-1,4.8,4.8,0,0,0-1.7-.5h-3.9a1.284,1.284,0,0,0-1,.4c-.2.3.1.8.3,1a3.956,3.956,0,0,0,1.5,1A3.371,3.371,0,0,0,186.3,324.6Z" fill="#fff"/>
      <path id="Path_2805" data-name="Path 2805" d="M98.2,322.1h5a10.868,10.868,0,0,0,1.8-.1c.1,0,.7-.1.7-.4s-.6-.4-.7-.4a11.018,11.018,0,0,0-1.8-.2h-5a10.868,10.868,0,0,0-1.8.1c-.1,0-.7.1-.7.4s.6.4.7.4a12.366,12.366,0,0,0,1.8.2Z" fill="#fff"/>
      <path id="Path_2806" data-name="Path 2806" d="M83.9,314.5a108.672,108.672,0,0,0,.5,40.2c.2.8,1.6,1.7,2.2,2.1.2.1,1.8,1.1,1.7.6a107.1,107.1,0,0,1-.5-39.9c.1-.6-1.3-1.6-1.7-1.9,0-.1-2.1-1.4-2.2-1.1Z" fill="#fff"/>
      <path id="Path_2807" data-name="Path 2807" d="M253.8,281.8l30.9-28.7c.7-.6-2.4-4.5-2.8-4.1L251,277.6c-.7.7,2.4,4.5,2.8,4.2Z" fill="#2462eb"/>
      <path id="Path_2808" data-name="Path 2808" d="M280,280.7l7.5-6.9c.2-.2-.1-.7-.2-.9a4.894,4.894,0,0,0-1.2-1.3,5.6,5.6,0,0,0-1.5-1c-.2-.1-.7-.3-.9-.1l-7.5,6.9c-.2.2.1.8.2.9a6.672,6.672,0,0,0,2.7,2.3C279.3,280.7,279.8,280.9,280,280.7Z" fill="#2462eb"/>
      <path id="Path_2809" data-name="Path 2809" d="M191.4,285l7.4-8c.8-.9,0-2.2-.8-2.7s-2.5-.8-3.3.1l-7.4,8c-.8.9,0,2.2.8,2.7S190.6,285.9,191.4,285Z" fill="#2462eb"/>
      <path id="Path_2810" data-name="Path 2810" d="M120.7,291.8a347.891,347.891,0,0,0,34.6-33c.6-.7,1.1-1.7,0-2.1a3.439,3.439,0,0,0-3.3,1,347.894,347.894,0,0,1-34.6,33c-.7.6-1,1.7,0,2.1s2.5-.3,3.3-1Z" fill="#2462eb"/>
      <path id="Path_2811" data-name="Path 2811" d="M122.4,276.2a41.739,41.739,0,0,0,7.8-9,2.483,2.483,0,0,0,0-1.7A2.891,2.891,0,0,0,129,264a2.67,2.67,0,0,0-1.8-.3,1.887,1.887,0,0,0-1.3,1c-.3.4-.5.8-.8,1.2l.3-.5a38.252,38.252,0,0,1-6.6,7.3,1.845,1.845,0,0,0-.5,1.6,3.805,3.805,0,0,0,.8,1.7,2.364,2.364,0,0,0,3.3.2Z" fill="#2462eb"/>
      <path id="Path_2812" data-name="Path 2812" d="M118,384.1a7.177,7.177,0,0,0-8.6,4.2c-1.4,3.5.2,7.5,2.6,10.1,2.8,3,7.4,5,11.2,2.6,2.6-1.6,4-5,4.3-8a8.877,8.877,0,0,0-4.6-9.1c-.9-.4-2.5-.7-3,.4s.7,2.2,1.5,2.6c.1,0,.2.1.3.2-.3-.3-.3-.2-.1,0s.4.4.2.1,0,0,.1.1l.1.1c-.2-.2,0,.1.1.1.1.2.3.5.4.7-.2-.4.1.4.1.5.1.2.1.5.2.7a1.213,1.213,0,0,0,.1.5v1a9.34,9.34,0,0,1-2.1,6,4.068,4.068,0,0,1-2.5,1.5h-.2a.9.9,0,0,1-.5-.1c.5.1-.7-.3-.2,0a4.053,4.053,0,0,1-.9-.5c.3.2,0,0-.1,0l-.6-.5-.1-.1-.3-.3c-.2-.2-.4-.5-.6-.7l-.1-.1a1.466,1.466,0,0,1-.2-.4c-.2-.3-.4-.7-.6-1a6.175,6.175,0,0,1-.4-3.3,4.823,4.823,0,0,1,1.7-2.9,3.147,3.147,0,0,1,1.5-.8h.1c.2,0,.4-.1.6-.1-.1,0-.3.1,0,0h.2c.9.2,2.4.2,2.5-1.1S119,384.4,118,384.1Z" fill="#fff"/>
      <path id="Path_2813" data-name="Path 2813" d="M276.5,378.4a9.233,9.233,0,0,0-4.4,2.5,8.986,8.986,0,0,0-1.7,4.8c-.5,3.8.1,8,3.2,10.7a8.148,8.148,0,0,0,9.4.9,13.859,13.859,0,0,0,5.9-8.1c.4-2.5-.8-5-2.2-7a8.172,8.172,0,0,0-5-3.7c-2.4-.4-.7,4.2,1,4.4a4.424,4.424,0,0,1,1.5.5c.3.2-.2-.2.1.1l.3.3h0l.4.5c.4.6-.1-.3.1.1.1.1.1.3.2.4l.2.4c.2.3-.1-.3,0,.1,0,0,.2.5.1.3s.1.3,0,.1a2.768,2.768,0,0,1-.1.9,11.118,11.118,0,0,1-1.8,3.4,9.91,9.91,0,0,1-2.7,2.7,6.475,6.475,0,0,1-4.8,1,8.8,8.8,0,0,1-1.5-.5l-.3-.2c.1.1.2.2,0-.1s-.1-.1,0,0l-.3-.3c.4.5-.2-.6,0,0l-.1-.4c.2.5,0-.1,0-.2s-.1-.8-.1-.5v-.9a10.868,10.868,0,0,1,.1-1.8,8.373,8.373,0,0,1,1.4-4,7.68,7.68,0,0,1,3.9-2c.4-.1.5-.8.5-1.1a3.371,3.371,0,0,0-.5-1.7c-.9-.9-1.8-2-2.8-1.6Z" fill="#fff"/>
      <path id="Path_2814" data-name="Path 2814" d="M93.4,418.5h58.8c.5,0-.9-1.4-1-1.5-.5-.5-1.6-2-2.4-2H90.1c-.5,0,.9,1.4,1,1.5.4.5,1.6,2,2.3,2Z" fill="#000005"/>
      <path id="Path_2815" data-name="Path 2815" d="M248.2,415.7H380c.9,0,2.6.1,3.4-.5s-.5-.6-1-.6H250.6c-.9,0-2.6-.1-3.4.5s.5.6,1,.6Z" fill="#000005"/>
      <path id="Path_2816" data-name="Path 2816" d="M173.4,416.2h58.8c.9,0,2.6-.2,2.9-1.3s-1.2-1.5-1.9-1.5H174.4c-.9,0-2.6.2-2.9,1.3s1.1,1.5,1.9,1.5Z" fill="#000005"/>
    </g>
    <g id="cloud">
      <path id="Path_2817" data-name="Path 2817" d="M120,128.8s-8-8.9-19.2-6.1a11.466,11.466,0,0,0-6.3,4c-4.8,6.1.8,14.2,9.4,14.1l98.1-.2c7.1,0,10.3-7.6,4.5-11.2-6.8-4.2-15.6-.7-15.6-.7s15.3-18.5-2.8-37.5-44.5-.8-41.7,19C146.5,110.3,117.6,95.7,120,128.8Z" fill="#fff"/>
      <path id="Path_2818" data-name="Path 2818" d="M122,127.4a22.961,22.961,0,0,0-21.1-7c-5.1,1.1-10.4,5.1-10.6,10.8-.2,5,3.6,9,8,10.8,3.1,1.2,6.4,1,9.6,1h14.2l42.7-.1,33.4-.1c4,0,8,.1,11.2-2.8a7.463,7.463,0,0,0,.6-10.6,2.7,2.7,0,0,0-.8-.7c-4.2-3.6-10.5-4-15.7-2.8a20.136,20.136,0,0,0-3.5,1l2.9,3.2a29.59,29.59,0,0,0,5.4-10.6,28.253,28.253,0,0,0-3.1-23c-4.8-7.8-12.5-14.3-21.9-15.2a27.248,27.248,0,0,0-20.7,7.2c-6.2,5.6-9.8,13.9-8.7,22.2l4-2.1a36.007,36.007,0,0,0-11-3.4c-6.7-.9-13.5,1.1-17,7.3-2.8,5-2.9,11.2-2.5,16.7.2,2.8,5.1,2.1,5-.7a41.711,41.711,0,0,1,.1-7.9,21.18,21.18,0,0,1,1.4-5.5,5.973,5.973,0,0,1,.6-1.1c.1-.2.2-.3.3-.5s.4-.6.1-.2l1.5-1.8c.1-.1.5-.4.1,0l.4-.3c.3-.2.5-.4.8-.6s.3-.2.4-.2c.5-.3-.5.2,0,0a4.179,4.179,0,0,1,1-.4l.9-.3c.3-.1.7-.2,0,0l.5-.1c.7-.1,1.3-.2,2-.3l.8-.1c-.8.1.2,0,.4,0,.7,0,1.3.1,2,.1l1.8.3.4.1c-.7-.1-.2,0,0,0a3.553,3.553,0,0,0,1,.2,28.115,28.115,0,0,1,3.1,1c.8.3,1.6.6,2.5,1,.3.1,1.1.6.2.1l.2.1c1.6.8,4.3.1,4-2.1a21.438,21.438,0,0,1,5.8-17.2c4.1-4.5,10.1-7.5,16-7.4,7.9.1,14.3,4.9,18.9,11.2a25.5,25.5,0,0,1,4.3,20.9,31.9,31.9,0,0,1-3,7.4,9.129,9.129,0,0,1-.8,1.3l-.3.5c.4-.6.1-.1-.1.1a5.547,5.547,0,0,0-.6.8c-1.6,2,.9,4,2.9,3.2a6.89,6.89,0,0,1,.8-.3l.9-.2c.1,0,.6-.1.1,0l.7-.2a17.272,17.272,0,0,1,6.4-.3c2,.3,4.5,1.1,5.7,2.9a3.522,3.522,0,0,1,0,3.7,4.845,4.845,0,0,1-4.4,2.2h-2.6l-30.1.1-40.7.1h-24a10.41,10.41,0,0,1-5.7-1.3c-3.1-1.8-5-5.4-3.2-8.7,2.2-4.2,7.8-5,12-4.2a19.968,19.968,0,0,1,5.3,2,23.924,23.924,0,0,1,2.1,1.3l.9.7.4.3c-.4-.3,0,0,.1.1a7.993,7.993,0,0,1,1.3,1.3C119.8,132.2,124,129.7,122,127.4Z" fill="#2462eb"/>
      <path id="Path_2819" data-name="Path 2819" d="M407.5,200.1s-62.2.5-68.5-.9-13.7-12.2-6.7-24.9,17.5-9,17.5-9-.9-17.8,20.8-16.8,20.8,21.2,20.8,21.2,16.3.7,14.3,13.8c0,0,7.6-2.8,11.6,6.9S407.5,200.1,407.5,200.1Z" fill="#fff"/>
      <path id="Path_2820" data-name="Path 2820" d="M406.4,198.2l-12.5.1H367.3c-7.9,0-15.9-.1-23.8-.5a25.944,25.944,0,0,1-5.6-.5,6.293,6.293,0,0,1-4.1-3.2,15.258,15.258,0,0,1-2.3-8.1c-.1-6.6,3.6-13.9,9.3-17.4a13.255,13.255,0,0,1,9.5-1.6c.5.1-.3-.1,0,0l.1.1c.7.2,1.2.1,1.2-.7v-.2a5.283,5.283,0,0,1,.1-1.3,21.019,21.019,0,0,1,.9-4.2,14.831,14.831,0,0,1,8.6-8.9,23.9,23.9,0,0,1,9.9-1.5,25.252,25.252,0,0,1,9.8,2,17.482,17.482,0,0,1,2.9,1.8c.5.4,0,0,.3.2a3.4,3.4,0,0,1,.6.6l.3.3c-.3-.4-.1-.1,0,0,.2.3.5.5.7.8l.3.4c-.1-.1.3.4.3.5a5.734,5.734,0,0,0,.4.7c.1.2.4.8.3.5a14.763,14.763,0,0,1,1.2,2.9,27.841,27.841,0,0,1,1.1,5c0,.6.1,1.1.1,1.7v.4a4.052,4.052,0,0,0,3.1,3.4,18.313,18.313,0,0,1,6.9,1.6,5.36,5.36,0,0,1,1.1.5l.5.3.4.2h0l.7.5c-.4-.3,0,0,.1.1.2.2.4.5.6.7a6.432,6.432,0,0,1,1,2.4,14.078,14.078,0,0,1,0,4.1c-.2,1.2,2.1,3.8,3.5,3.4a8.523,8.523,0,0,1,3.2-.3,6.193,6.193,0,0,1,2.4.8,7.252,7.252,0,0,1,2.3,2.9c1,2.1,1.6,4.5-.1,6.4a9.13,9.13,0,0,1-5.1,2.5,25.12,25.12,0,0,1-2.7.4l-.9.2c-.4-.1.3-.1,0,0-2,0,1,3.7,2.4,3.7,3.4,0,8-.7,10.2-3.6,2-2.6,1-6-.3-8.6-1.8-3.6-4.8-6.9-8.7-8.1a10.04,10.04,0,0,0-5.7-.1l3.5,3.4a13.458,13.458,0,0,0-5.2-12.7,21.314,21.314,0,0,0-9.9-4.2c-.8-.1-1.5-.2-2.3-.3l3.1,3.4a23.93,23.93,0,0,0-10.2-20.3c-6.1-4.2-14.2-5.2-21.4-3.8a16.691,16.691,0,0,0-12.1,9,17.368,17.368,0,0,0-1.7,8.1l1.2-.7a13.305,13.305,0,0,0-7.9-.1c-6.2,1.6-10.4,7.4-12.4,13.2a19.5,19.5,0,0,0,3.5,19.1,14.93,14.93,0,0,0,9.9,5.6c7.1.6,14.3.6,21.4.6,9.5.1,19.1.1,28.6.1,5.5,0,10.9,0,16.4-.1h.3C410.8,202,407.8,198.2,406.4,198.2Z" fill="#2462eb"/>
      <path id="Path_2821" data-name="Path 2821" d="M358,170.9s-4.6-9.9-17.8-4.4" fill="#fff"/>
      <path id="Path_2822" data-name="Path 2822" d="M360.4,170.2c-2.1-4.5-7.2-7-12.1-7a24.17,24.17,0,0,0-9.1,2.1c-.8.3-1.9,1.4-1.2,2.3s2.4.6,3.2.2a16.041,16.041,0,0,1,3.1-1c.1,0,.7-.1.3-.1l.7-.1a7.568,7.568,0,0,1,1.5-.1h.8l.6.1h.4l1,.2.5.1c.1,0,.7.3.3.1a7,7,0,0,1,1.7.9c.2.2.5.3.7.5l.3.2c-.3-.2,0,0,.1.1a11.233,11.233,0,0,1,1.8,2c.2.3.3.5.5.8s-.2-.4,0,0c.5,1,1.9,1.1,2.8.8.7-.2,2.5-1.1,2-2.1Z" fill="#2462eb"/>
    </g>
    <g id="bird">
      <path id="Path_2823" data-name="Path 2823" d="M260.9,105.7a10.034,10.034,0,0,1,3.5-6.5,14.627,14.627,0,0,1,1.3-.9l.6-.3c.2-.1.6-.2.3-.1s.2,0,.3,0a1.7,1.7,0,0,1,.7.1,5.775,5.775,0,0,1,1.7.6,7.148,7.148,0,0,1,4.1,5.4,8.3,8.3,0,0,1-.2,3.5,11.11,11.11,0,0,1-.7,1.6c-.2.2-.3.5-.5.7-.6.7-1.1.4.5.2h1.8c-.9-.1-1-2.2-1-2.8a7.216,7.216,0,0,1,.8-3.2,8.6,8.6,0,0,1,2-2.6,6.014,6.014,0,0,1,1.3-.9c.3-.2,1.1-.3.5-.3,1.9-.1,3.9,1.4,5,2.8a9.587,9.587,0,0,1,2.3,6.3c0,.7,4.9.5,5-.7a9.861,9.861,0,0,0-9.2-9.9c-5.2-.4-11.5,2.3-12.5,8a6.236,6.236,0,0,0,.3,3.3c.6,1.3,1.9,1.5,3.3,1.4,3.2-.2,5.5-1.7,6.2-4.9a7.811,7.811,0,0,0-1.7-6.9,9.54,9.54,0,0,0-6.9-3c-6.5-.4-12.8,3.2-13.7,10-.2.4,4.7.4,4.9-.9Z" fill="#000005"/>
      <path id="Path_2824" data-name="Path 2824" d="M304.3,108.5a5.708,5.708,0,0,1,1.9-4.9,2.186,2.186,0,0,1,.5-.3c-.4.2-.1,0,.2,0a4.53,4.53,0,0,1,2.2.8,6.456,6.456,0,0,1,2.2,8.2l4.7-1.5a4.128,4.128,0,0,1-.1-3.6,5.969,5.969,0,0,1,.9-1.5l.6-.6c.2-.2.5-.3.1-.1s-.1,0,.1.1.7,0,1,.1a5.387,5.387,0,0,1,2.1.8,10.178,10.178,0,0,1,3.5,3c.9,1.1,5.2-1.1,4.7-1.7a10.35,10.35,0,0,0-12.1-3.7c-3.5,1.3-7.5,5-5.5,9,.3.7,1.9.1,2.3,0a4.523,4.523,0,0,0,2.4-1.4,6.9,6.9,0,0,0-3.3-9.3,6.356,6.356,0,0,0-1.8-.6c-5.1-.7-12,3.5-11.4,9.2.2.6,4.9-.6,4.8-2Z" fill="#000005"/>
      <path id="Path_2825" data-name="Path 2825" d="M287,126.1a2.043,2.043,0,0,1,.8-2.4c.1-.1.5-.3.1-.1l.4-.2c.4-.2-.2,0,.1,0,.1,0,.5-.1.2-.1h.3c-.4-.3.7.5.2.1l.3.2c.3.2-.1-.1.1.1s.5.8.3.4c.1.3.2.5.3.8,0,.1.1.5,0,.1v.9c0,.2-.1.5,0,.1a2.615,2.615,0,0,1-.3.8c-.1.3.2-.3,0,0a1.867,1.867,0,0,1-.3.4c.1-.2.2-.2,0,0-.5.4.4-.2-.1.1l3.7,1.7a5.362,5.362,0,0,1,1.1-2.7c-.2.3.3-.3.3-.3s.6-.5.3-.3a4.053,4.053,0,0,1,.9-.5c-.4.2.3-.1.3-.1s.8-.1.3-.1h.9l.5.1s.7.2.4.1a4.381,4.381,0,0,1,2.3,1.7,2.6,2.6,0,0,0,3.4.6,2.113,2.113,0,0,0,1-3,9.288,9.288,0,0,0-13-2.1,9.093,9.093,0,0,0-3.8,6.7c-.2,1.9,2.4,2.5,3.7,1.7,4.1-2.4,4.4-8.8.1-11.2-4.7-2.6-11.4,2.5-9.8,7.7.9,2.8,5.8,1.5,5-1.2Z" fill="#000005"/>
    </g>
  </g>
</svg>
