<svg xmlns="http://www.w3.org/2000/svg" width="329.946" height="406.616" viewBox="0 0 329.946 406.616">
  <g id="Free_Illustrations" data-name="Free Illustrations" transform="translate(-84.868 -46.184)">
    <g id="document">
      <g id="document-2">
        <path id="Path_2912" data-name="Path 2912" d="M306.7,319.1c0-3.1-8.5-23.2-8.5-23.2H211.6l-16.2-13.1s-92,.2-95.4,4.3,57.5,160.6,57.5,160.6Z" fill="#2462eb"/>
        <path id="Path_2913" data-name="Path 2913" d="M160.9,309.3h-41l40.9,134.6Z" fill="#fff"/>
        <path id="Path_2914" data-name="Path 2914" d="M161.3,307.3h-41c-1.6,0-3.1,1.6-2.6,3.1l4.1,13.4,9.8,32.2,11.8,38.9,10.2,33.6,3.4,11a53.387,53.387,0,0,0,1.6,5.3.349.349,0,0,0,.1.2c.3,1,2,.8,2.7.5a2.584,2.584,0,0,0,1.8-2.4V314c0-1.7.1-3.5,0-5.2v-.2c0-1.2-1.7-1.4-2.5-1.1a2.869,2.869,0,0,0-2.2,2.5V439.2c0,1.7-.1,3.5,0,5.2v.2l4.6-1.9L159,429.3l-9.8-32.2-11.8-38.9-10.2-33.6-3.3-11c-.5-1.8-1-3.6-1.6-5.3l-.1-.2-2.6,3.1h41C162.9,311.2,164.6,307.3,161.3,307.3Z" fill="#000005"/>
        <path id="Path_2915" data-name="Path 2915" d="M147,303.4l13.8,140.5L267.5,307.1Z" fill="#fff"/>
        <path id="Path_2916" data-name="Path 2916" d="M144.8,302.5l1.4,14,3.3,33.5,4,40.7,3.4,35,1.1,11.6c.2,1.8.3,3.7.5,5.5v.2c.1,1.4,3.5,3.2,4.5,2l2.8-3.6,7.8-10L185,416.7l14.1-18,15.3-19.6,15.5-19.9,14.4-18.5,12.2-15.6,8.8-11.3a50.2,50.2,0,0,0,4.1-5.3c0-.1.1-.1.2-.2.4-.5-.6-1.4-.9-1.6a4.589,4.589,0,0,0-2.5-1l-12-.4-28.8-.9-34.7-1.1-30-.9c-4.9-.2-9.8-.4-14.7-.5h-.2c-1,0-1.3.6-.7,1.4a4.7,4.7,0,0,0,3.1,1.6l12,.4,28.8.9,34.7,1.1,30,.9,10,.3c1.6,0,3.1.2,4.7.1h.2l-3.4-2.6-2.8,3.6-7.8,10-11.5,14.7-14,18L213.9,372l-15.5,19.9L184,410.4,171.8,426,163,437.2c-1.4,1.8-2.9,3.5-4.1,5.3l-.2.2,4.5,2-1.4-14-3.3-33.5-4-40.7-3.4-35L150,309.9c-.2-1.8-.3-3.7-.5-5.5v-.2C149.2,302.6,144.6,301,144.8,302.5Z" fill="#000005"/>
        <path id="Path_2917" data-name="Path 2917" d="M182.4,288.3,159.8,443.9l208.7-97.3,7-45.3Z" fill="#fff"/>
        <path id="Path_2918" data-name="Path 2918" d="M180.1,287.4,177.9,303l-5.4,37.2L166,385l-5.6,38.8c-.9,6.3-1.9,12.6-2.7,18.9v.3c-.2,1.6,1.9,3.6,3.6,2.9l7.9-3.7,21.1-9.9,30.2-14.1L256,401.7l36.4-17,33.4-15.6,26.4-12.3,15.4-7.2c.8-.4,1.5-.7,2.3-1.1,1.2-.6,1.1-1.7,1.3-2.9l1-6.2,5.4-34.8.4-2.5a2.852,2.852,0,0,0-2.5-3l-5.2-.4-14.2-.8-20.8-1.4-25.4-1.7-27.7-1.9-28-1.9L228,289.2l-22.1-1.5L190,286.6l-7.5-.5h-.3c-1.1-.1-2.2.3-2.1,1.6a2.865,2.865,0,0,0,2.5,2.4l5.2.4,14.1.9,20.8,1.4,25.4,1.7,27.7,1.9,28,1.9,26.2,1.8,22.1,1.5,15.9,1.1c2.5.2,5,.5,7.5.5h.3l-2.5-3L371,315.4l-3.8,24.5-.9,5.6,1-1.1-5.6,2.6-15.2,7.1L324,364.8l-27.4,12.8-29.9,14-30.3,14.1-28.3,13.2L184.2,430,167,438c-2.7,1.3-5.5,2.4-8.1,3.8l-.4.2,3.6,2.9,2.3-15.6,5.4-37.1,6.5-44.9,5.6-38.8c.9-6.3,1.9-12.6,2.7-18.9v-.3a2.788,2.788,0,0,0-1.9-2.8C181.9,286.1,180.3,286.2,180.1,287.4Z" fill="#000005"/>
        <path id="Path_2919" data-name="Path 2919" d="M404.9,310.5c-1.3-1.3-64.5-.6-120.1.9-1.5-5.8-2.9-10.2-3.6-10.2-2.1.1-78,0-78,0l-14,44.8c-13.6,38.9-31.8,101.5-31.8,101.5l205,5.3C362.4,452.9,407.2,312.9,404.9,310.5Z" fill="#2462eb"/>
      </g>
      <path id="Path_2920" data-name="Path 2920" d="M196.6,414.3a3.805,3.805,0,0,1,.9-1.3c.6-.5.3-.3-1.1.4-1.4.5-1.8.7-1,.5h.8a5.047,5.047,0,0,1,3.2,1.5,10.764,10.764,0,0,1,2.7,6.8,17.749,17.749,0,0,1-1,7.6,20.17,20.17,0,0,1-1.8,3.6A10.1,10.1,0,0,1,198,435c-.2.2-.4.5-.6.7s-1.2.8.2.2l2.9-1c-1.6.2-1.4-2.3-1.3-3.3A9.3,9.3,0,0,1,201,427a15.617,15.617,0,0,1,3.3-3.5,18.822,18.822,0,0,1,2.3-1.6l1.1-.7a10.909,10.909,0,0,0,1.1-.6l-1.6.6a3.4,3.4,0,0,1,1,.1,2.361,2.361,0,0,1,.9.6,17.384,17.384,0,0,1,1.3,1.5,16.942,16.942,0,0,1,2.4,4.1c1.1,2.8,1.1,6.2-1.4,8.2l4.6-1.8a2.671,2.671,0,0,1-.8-2.9,5.372,5.372,0,0,1,1-1.6c.5-.7-2.1.5-.9.3.4-.1.7-.1,1.1-.2,2.1-.2,4.7.2,5.4,2.5.1.2,4.8-1.4,4.6-1.9-1.1-3.5-6.1-2.7-8.7-1.9-2.1.6-5,1.5-6.4,3.3a2.988,2.988,0,0,0,.1,4.2h0c.3.3,1.8-.5,2.1-.6a11.507,11.507,0,0,0,2.5-1.2,6.869,6.869,0,0,0,1.9-7.3,15.6,15.6,0,0,0-2-4.1c-.8-1.2-1.7-2.7-3.1-3.3s-2.8.1-4.1.6a37.128,37.128,0,0,0-5.3,2.6,19.372,19.372,0,0,0-7.1,6.2,11.1,11.1,0,0,0-1.6,3.9c-.2,1.1-.6,3.2.5,4s3.1-.5,4.1-1a10.052,10.052,0,0,0,3.6-2.9,16.887,16.887,0,0,0,3.1-16c-.9-2.7-3.1-5.2-6.1-4.9a15.537,15.537,0,0,0-5.1,1.8,4.917,4.917,0,0,0-2.7,2.6s2.2-.6,2.4-.7c.4-.1,1.9-.5,2.1-1.1Z" fill="#fff"/>
    </g>
    <g id="paper">
      <path id="Path_2921" data-name="Path 2921" d="M369.9,61l-56,7.7c-2.5.3,15.4,111.5,15.7,114s83.4-7.1,82.8-11.4S403,90.1,403,90.1C394,76.2,369.9,61,369.9,61Z" fill="#fff"/>
      <path id="Path_2922" data-name="Path 2922" d="M370.3,59.2,357,61l-25.8,3.5c-5.5.8-11.1,1.3-16.7,2.3-4.2.7-3.2,5.2-2.9,8.3.5,5.8,1.3,11.5,2,17.3,1.1,8.1,2.2,16.1,3.4,24.2,1.3,8.7,2.6,17.4,4,26.1,1.2,7.7,2.4,15.3,3.6,23,.8,5,1.6,10,2.4,14.9.1.9.2,1.9.4,2.9.3,1.4,2,1.4,3.2,1.4a120.126,120.126,0,0,0,15.9-.9c8.4-.8,16.8-1.7,25.1-2.8,8.2-1.1,16.3-2.2,24.5-3.6,3.1-.5,6.1-1.1,9.2-1.8a34.12,34.12,0,0,0,6.2-1.9c1.6-.7,3.5-1.9,3.3-3.9-.1-1.6-.4-3.2-.6-4.8-.8-6.9-1.6-13.7-2.4-20.5-1-8.8-2-17.6-3.1-26.5l-2.5-21.9-.7-6c0-.4-.1-.8-.1-1.2a3.379,3.379,0,0,0-.6-1.2c-.8-1.1-1.6-2.2-2.5-3.3-7-8.5-16-15.5-25.1-21.8-1.8-1.2-3.5-2.4-5.3-3.6s-5.5,2-3.6,3.2a168.882,168.882,0,0,1,17.6,12.9,87.218,87.218,0,0,1,12.3,12c.8,1,1.6,2.1,2.4,3.2.1.1.4.6.4.3v.1a5.283,5.283,0,0,1,.1,1.3l1.8,15.6,2.9,25c.9,8.1,1.9,16.3,2.8,24.4.6,4.8,1.1,9.5,1.7,14.3a1.268,1.268,0,0,0,.1.6c-.1-.3.2-.8.5-1.2.5-.6-.4.4.3-.2.4-.4.1-.1-.1,0-.4.3.7-.3.2-.1-.2.1-.3.1-.5.2-.4.1-.8.3-1.1.4-.6.2.5-.1-.1,0l-.7.2c-1.2.3-2.3.6-3.5.9-6.9,1.6-13.9,2.6-20.8,3.6-8.4,1.2-16.7,2.3-25,3.2-7,.8-13.9,1.5-20.9,1.9a41.419,41.419,0,0,1-6.1.1h-.5c-.4,0-.4-.1,0,0a1.268,1.268,0,0,0-.6-.1c-.2,0,.4.2.2.1,0,0,.4.4.3.6v-.3c-.2-3.2-1-6.4-1.5-9.6-1-6.5-2-13-3.1-19.5-1.3-8.2-2.5-16.4-3.8-24.7-1.3-8.4-2.5-16.9-3.7-25.3-1-7-2-14.1-2.8-21.1-.6-4-.9-8.1-1.1-12.2v-.2a2.268,2.268,0,0,1,.1-.4c.1.2-.3.7-.4.8a7.072,7.072,0,0,1-1.8,1.2c-.4.3-.4.1-.2.1a1.268,1.268,0,0,0,.6-.1l6.6-.9,23.9-3.3,21.4-3,3.4-.5a3.38,3.38,0,0,0,2.6-2.3C372.4,59.3,371.2,59.1,370.3,59.2Z" fill="#000005"/>
      <path id="Path_2923" data-name="Path 2923" d="M368.1,64.8c-.3,7.9-.6,15.8-.6,23.7,0,2.9-.7,8.1,3,8.8a31.084,31.084,0,0,0,5.3.1c2.8-.1,5.5-.4,8.3-.7,6.7-.8,13.8-1.7,20-4.4,2.7-1.2.4-5.6-2.2-4.4-5,2.2-10.7,3-16.2,3.8-2.8.4-5.7.7-8.5.9-1.2.1-2.3.2-3.5.2h-2l-.8-.1c-.7,0,0,0,.3.2a2.41,2.41,0,0,1,1,1c0,.1.1.7.1.4a1.268,1.268,0,0,0-.1-.6c.2.9,0-.1,0-.4V89.4c0-4.7.1-9.5.2-14.2.1-3.2.2-6.4.3-9.7.2-2.9-4.4-3.9-4.6-.7Z" fill="#000005"/>
      <path id="Path_2924" data-name="Path 2924" d="M337.8,94.9a68.472,68.472,0,0,0,12.8-.3c.3,0-.1-.4-.1-.4a8.264,8.264,0,0,0-1.3-.7,7.872,7.872,0,0,0-3-.8A62.411,62.411,0,0,1,334,93c-1-.1.5.8.6.8a6.794,6.794,0,0,0,3.2,1.1Z" fill="#2462eb"/>
      <path id="Path_2925" data-name="Path 2925" d="M339,95.6l2.4,19.1c0,.2,2.2-.9,2.3-1,.3-.2,2.1-1,2-1.5-.8-6.4-1.6-12.7-2.4-19.1,0-.2-2.2.9-2.3,1-.3.2-2.1,1-2,1.5Z" fill="#2462eb"/>
      <path id="Path_2926" data-name="Path 2926" d="M341.8,131.4a105.986,105.986,0,0,0,16.9-1.3c.5-.1,1.8-.5.9-1.1a5.748,5.748,0,0,0-3.4-.4,99.739,99.739,0,0,1-14.4,1.1c-.5,0-2.5-.1-2.5.7S341.5,131.4,341.8,131.4Z" fill="#2462eb"/>
      <path id="Path_2927" data-name="Path 2927" d="M367.4,131.3h5a1.974,1.974,0,0,0,1.4-.6,2.223,2.223,0,0,0,.3-1.6,2.588,2.588,0,0,0-.9-1.7,2.751,2.751,0,0,0-1.5-.8h-5a1.974,1.974,0,0,0-1.4.6,2.223,2.223,0,0,0-.3,1.6,2.588,2.588,0,0,0,.9,1.7,1.9,1.9,0,0,0,1.5.8Z" fill="#2462eb"/>
      <path id="Path_2928" data-name="Path 2928" d="M341,150c5.7.2,11.2-1.7,16.7-2.9a133.127,133.127,0,0,1,16.8-2.3,3.2,3.2,0,0,0,2.9-1.9c.3-1.1-.7-1.9-1.8-1.8a138.864,138.864,0,0,0-17,2.3c-5.4,1.1-10.9,3.1-16.4,2.9a3.139,3.139,0,0,0-2.9,2c-.3,1.2.7,1.7,1.7,1.7Z" fill="#2462eb"/>
      <path id="Path_2929" data-name="Path 2929" d="M386.3,143.7l4.5-.3c.1,0,.2,0,.1-.1a.367.367,0,0,0-.1-.3,5.241,5.241,0,0,0-1-1.1,5.665,5.665,0,0,0-1.5-1.2l-.4-.3-.6-.3-4.5.3c-.1,0-.2,0-.1.1a.367.367,0,0,0,.1.3,5.241,5.241,0,0,0,1,1.1,8.777,8.777,0,0,0,1.5,1.2l.4.3A.864.864,0,0,0,386.3,143.7Z" fill="#2462eb"/>
      <path id="Path_2930" data-name="Path 2930" d="M379.7,130.4h4.5a2.9,2.9,0,0,0,1.8-.5,2.758,2.758,0,0,0,1.2-1.4,1.528,1.528,0,0,0-.7-2.1,1.854,1.854,0,0,0-.7-.2h-4.5a2.9,2.9,0,0,0-1.8.5,2.758,2.758,0,0,0-1.2,1.4,1.528,1.528,0,0,0,.7,2.1A.952.952,0,0,0,379.7,130.4Z" fill="#2462eb"/>
      <path id="Path_2931" data-name="Path 2931" d="M87.5,47.1l76.2,1s23.1,11.2,22.5,59.9.5,56.2-11.9,62.9S98.1,153,98.1,153s-10.7-18.6-5.6-28.3l17.4,3.3S108.4,67.2,87.5,47.1Z" fill="#fff"/>
      <path id="Path_2932" data-name="Path 2932" d="M89.2,47.7,115,48l41,.5,9.4.1-3.8-.8.4.2.3.2c.2.1.4.3.6.4a36.781,36.781,0,0,1,3.8,3.1,45.536,45.536,0,0,1,10.2,15.4c4.3,9.8,6.1,20.5,6.7,31.1.4,7.3.1,14.6,0,21.9-.1,5.9-.1,11.7-.2,17.6-.2,7-.1,14.4-2,21.2a16.921,16.921,0,0,1-6.9,9.9,12.749,12.749,0,0,1-5.6,2.4,22.954,22.954,0,0,1-3.7.2h-1.3l-.7-.1-1.2-.2-.6-.1h.1l-.4-.1a25.125,25.125,0,0,1-2.7-.4h.1l-.3-.1-.7-.1L156,170c-1.9-.4-3.4-.7-5.6-1.2-4.1-.9-8.2-2-12.4-3.3-8-2.3-16-4.9-23.9-7.7-4.6-1.6-9.2-3.3-13.7-5l-.7-.3.7.4a71.3,71.3,0,0,1-3.3-6.8A42.614,42.614,0,0,1,93.4,132a14.629,14.629,0,0,1,1.4-7.4l-2.5-.1,17.4,3.3c.2,0,2.5.4,2.5.1-.2-7.3-.9-14.6-1.8-21.8-1.7-14-4.3-28.1-9.6-41.2-2.6-6.5-6-13-11.1-17.9-.6-.6-2.2-.7-3-.8-.2,0-2.1-.1-1.8.2,4.5,4.4,7.7,10,10.2,15.7a121.049,121.049,0,0,1,6.5,20.4,242.49,242.49,0,0,1,5.3,37c.2,2.6.3,5.1.4,7.7l2.5.1L92.4,124c-.3-.1-2.3-.5-2.5-.1-1.7,3.4-1.6,7.3-1,10.9a51.1,51.1,0,0,0,3.4,10.9,35.447,35.447,0,0,0,3,6.2,3.152,3.152,0,0,0,1.7.9q14.1,5.4,28.5,9.9c7,2.2,14,4.3,21.1,6a124.492,124.492,0,0,0,19.2,3.4c4.1.3,8.3.4,12-1.8a17.953,17.953,0,0,0,6.7-6.7c1.9-3.7,2.5-8.1,2.9-12.2.7-7.3.7-14.7.8-22.1.2-19.7,1.7-40.2-5.5-59-3.1-8-7.9-16.2-15-21.3a10.657,10.657,0,0,0-6.2-2c-2.9-.1-5.8-.1-8.6-.1l-36.1.1-29.3-.4H85.9c-.8,0-.9.2-.1.5A9.737,9.737,0,0,0,89.2,47.7Z" fill="#000005"/>
      <path id="Path_2933" data-name="Path 2933" d="M173.1,167.3a.6.6,0,0,1-.4-.1l-.5-.1c-.6-.1.5.2-.2-.1a12.2,12.2,0,0,1-1.7-.7l-.4-.2-.3-.1c.3.2-.2-.1-.3-.2a6.124,6.124,0,0,1-.6-.4,10.914,10.914,0,0,1-3.7-4,19.578,19.578,0,0,1-2.5-7.5,40.8,40.8,0,0,1,.9-13.9c.2-1-.9-1.6-1.7-1.8l-22.6-5.3-35.9-8.4-8.3-1.9c-2.6-.6-4.8,3.1-1.6,3.8l22.7,5.3,36,8.4,8.3,1.9-1.7-1.8c-1.5,7.4-2,15.7,1.7,22.6a16.24,16.24,0,0,0,8.7,7.4,19.733,19.733,0,0,0,2.6.7,2.956,2.956,0,0,0,3.1-1.5,1.791,1.791,0,0,0-1-2.2,1.486,1.486,0,0,1-.6.1Z" fill="#05050a"/>
      <path id="Path_2934" data-name="Path 2934" d="M139.7,79.7c4.3.3,8.5.8,12.7,1.4.1,0-.3-.8-.2-.7a24.065,24.065,0,0,0-1.9-3.1c-.1-.2-.3-.5-.5-.5-4.2-.6-8.5-1.1-12.7-1.4-.1,0,.3.8.2.7.3.5.5,1,.8,1.6a13.03,13.03,0,0,0,1,1.5c.2.2.4.5.6.5Z" fill="#2462eb"/>
      <path id="Path_2935" data-name="Path 2935" d="M160,81.8h2a1.8,1.8,0,0,0,1-.2,3.552,3.552,0,0,0,.9-.4l.6-.6a1.08,1.08,0,0,0,.3-.7v-.5a2.622,2.622,0,0,0-.5-.9l-.5-.3a2.663,2.663,0,0,0-1.2-.3h-1.9a1.8,1.8,0,0,0-1,.2,3.552,3.552,0,0,0-.9.4l-.6.6a1.08,1.08,0,0,0-.3.7v.5a1.934,1.934,0,0,0,.5.9l.5.3a2.016,2.016,0,0,0,1.1.3Z" fill="#2462eb"/>
      <path id="Path_2936" data-name="Path 2936" d="M116,73.8l1.4,2.6a16.53,16.53,0,0,0,1.4,2.6,6.033,6.033,0,0,0,2.3,1.9,2.809,2.809,0,0,0,2,.6,2.539,2.539,0,0,0,1-.8l1.2-1c2.9-2.6,5.7-5.4,8.4-8.3.4-.4-1.4-1.8-1.7-1.9a7.973,7.973,0,0,0-1.6-.8c-.2-.1-.6-.3-.9,0-1.6,1.8-3.3,3.4-5,5.1-.9.8-1.7,1.7-2.6,2.5l-1.3,1.2-.6.5a4.349,4.349,0,0,1-.7.6l2.5,1.4-.1-.1,1.1,1.1c-1-1.7-1.9-3.5-2.8-5.2a6.211,6.211,0,0,0-2.7-2.1c-.4-.2-1.8-.8-1.3.1Z" fill="#2462eb"/>
      <path id="Path_2937" data-name="Path 2937" d="M139.1,107.7c4.3.3,8.5.8,12.7,1.4a4.717,4.717,0,0,0,3.2-1.2c.4-.4,1.3-1.5.2-1.6-4.2-.6-8.5-1.1-12.8-1.4a4.717,4.717,0,0,0-3.2,1.2c-.3.3-1.3,1.5-.1,1.6Z" fill="#2462eb"/>
      <path id="Path_2938" data-name="Path 2938" d="M163.8,109.3h1.9a1.7,1.7,0,0,0,.7-.1c.2,0,.3-.1.5-.2a.367.367,0,0,0,.1-.3c0-.1-.1-.3-.2-.3l-.4-.2a4.179,4.179,0,0,0-1-.4,6.279,6.279,0,0,0-1.9-.3h-2a1.7,1.7,0,0,0-.7.1c-.2,0-.3.1-.5.2a.367.367,0,0,0-.1.3c0,.1.1.3.2.3l.4.2a3.582,3.582,0,0,0,1.1.4,5.822,5.822,0,0,0,1.9.3Z" fill="#2462eb"/>
      <path id="Path_2939" data-name="Path 2939" d="M118.6,102.8c.9,1.7,1.8,3.6,2.8,5.2a7.957,7.957,0,0,0,2.1,2,1.979,1.979,0,0,0,1.8.4,9.38,9.38,0,0,0,1.2-.9l1.1-.9a107.034,107.034,0,0,0,8.3-8.2c.6-.6-1-2-1.4-2.2s-1.9-1.5-2.5-.9c-1.6,1.8-3.3,3.5-5,5.1-.9.8-1.7,1.7-2.6,2.5L123,106l-.6.5c0,.1-.6.6-.6.6l1.9,1-.1-.1,1.2,1.3c-1-1.7-1.9-3.5-2.8-5.2a5.324,5.324,0,0,0-2.7-2.2c-.3-.1-.7-.3-1,0s.1.6.3.9Z" fill="#2462eb"/>
      <path id="Path_2940" data-name="Path 2940" d="M284.2,260.1l-74.4-13.4s21-47,4.6-101.2c0,0,67.6-4.2,77.2-.8S311.4,216.5,284.2,260.1Z" fill="#fff"/>
      <path id="Path_2941" data-name="Path 2941" d="M283.3,257.8l-25.1-4.5-40-7.2-9.2-1.7,2.1,4.3a110.583,110.583,0,0,0,6.2-19.5,163.092,163.092,0,0,0,4.5-48.2,151.205,151.205,0,0,0-6.1-34.7l-.4,1.5c8.2-.5,16.5-.9,24.7-1.3,13.7-.6,27.4-1.2,41.1-.7,2.4.1,4.8.2,7.2.4a16.28,16.28,0,0,1,4.4.8c-.4-.1.3.2.4.3.4.2-.2-.3.1,0l.4.4c.3.3-.3-.4,0,.1a1.38,1.38,0,0,1,.3.4c.4.5-.2-.4,0,.1l.4.6c.4.6-.2-.5,0,.1l.3.6.3.7c.3.6-.2-.4.1.3l1.2,3.3c-.2-.5.1.4.1.5l.3.9a14.619,14.619,0,0,1,.5,2c.4,1.5.7,3.1,1,4.6.6,3.2,1.1,6.8,1.4,10.2a169.847,169.847,0,0,1,.6,24.7c-1,18.9-4.9,38.1-13.7,54.9-1.1,2.1-2.2,4.1-3.5,6.1-.7,1.2,1.9,5.2,2.5,4.1,10.3-16.6,15.3-36.3,17-55.6,1.4-15.8,1-32.4-2.9-47.9-1.2-4.7-2.7-10-5.9-13.8a6.842,6.842,0,0,0-3.7-2.5,33.275,33.275,0,0,0-5.4-.7c-6-.4-12-.4-17.9-.4q-11.1.15-22.2.6c-10.1.4-20.2.9-30.4,1.5h-.5c-.7,0-.5,1-.4,1.5a148.963,148.963,0,0,1,5.5,57.1,157.187,157.187,0,0,1-7.7,36.5q-1.05,3.15-2.4,6.3c-.5,1.1.8,4.1,2.1,4.3l25.1,4.5,40,7.2,9.2,1.7c.9.2.4-1.7.2-2C285,259.6,284.3,258,283.3,257.8Z" fill="#000005"/>
      <path id="Path_2942" data-name="Path 2942" d="M242.3,193.1a55.34,55.34,0,0,1,5.3-7.4,29.961,29.961,0,0,1,3-3.2,18.067,18.067,0,0,1,3.3-2.9c.1,0,.8-.4.8-.3h-.4c-.2-.1-.2-.1,0,.1a9.131,9.131,0,0,0,.8,1.3,22.26,22.26,0,0,1,1.3,4.4,13.963,13.963,0,0,1,.2,4.1,5.84,5.84,0,0,1-.4,1.8,1.612,1.612,0,0,1-.4.7c-.6.8-.5-.2,1,.4l1,.6c.2.2.1,0,.4-.3a9.014,9.014,0,0,1,1-.9,16.906,16.906,0,0,1,7.6-3.3c3.7-.4,4.5,3.7,5.1,6.6.4,2.1,5.4,2.2,4.9-.2s-1.1-4.8-2.6-6.6a9.728,9.728,0,0,0-7.8-3.2,18.67,18.67,0,0,0-8.3,2.5c-1.8,1-5.5,3-5,5.6a3.189,3.189,0,0,0,2.9,2.5,4.28,4.28,0,0,0,4.1-1.7c1.7-2,1.7-4.8,1.4-7.2a16.406,16.406,0,0,0-2.5-8.1,6.393,6.393,0,0,0-8.4-1.6c-2.7,1.5-5,4.2-7,6.5a52.449,52.449,0,0,0-5.9,8.1c-1.4,2.2,3.4,3.6,4.6,1.7Z" fill="#2462eb"/>
      <path id="Path_2943" data-name="Path 2943" d="M265.1,171.5a5.666,5.666,0,0,0-2.3,5.1,5.234,5.234,0,0,0,1,2.7,5.33,5.33,0,0,0,2.3,1.6,6.131,6.131,0,0,0,5.7-.9,5.885,5.885,0,0,0,2.2-5.9,4.959,4.959,0,0,0-.8-2,3.447,3.447,0,0,0-1.2-1.2,5.178,5.178,0,0,0-3.8-.9,2.588,2.588,0,0,0-1.7.9,2.271,2.271,0,0,0-.6,1.6,2.214,2.214,0,0,0,2.5,1.8h.4l-.6-.1a2.544,2.544,0,0,1,.7.2l-.5-.2a1.794,1.794,0,0,1,.7.5l-.4-.4a4.349,4.349,0,0,1,.6.7l-.3-.5a3,3,0,0,1,.4,1l-.1-.6a4.868,4.868,0,0,1,.1,1.2v-.6a3.6,3.6,0,0,1-.2,1.1l.2-.6a5.938,5.938,0,0,1-.4.8l.3-.5a2.182,2.182,0,0,1-.4.5l.5-.4c-.2.2-.4.3-.5.4l.6-.3c-.2.1-.5.2-.7.3l.6-.2a2.2,2.2,0,0,1-.8.1h.6a1.949,1.949,0,0,1-.8-.1l.6.1a2.614,2.614,0,0,1-.8-.3l.5.2a1.794,1.794,0,0,1-.7-.5l.4.4a2.651,2.651,0,0,1-.5-.6l.3.5a3.552,3.552,0,0,1-.4-.9l.1.6a3.4,3.4,0,0,1-.1-1v.6a3.553,3.553,0,0,1,.2-1l-.2.6a1.612,1.612,0,0,1,.4-.7l-.3.5a2.182,2.182,0,0,1,.4-.5l-.5.4.2-.2a2.523,2.523,0,0,0,1-1.5,1.8,1.8,0,0,0-.4-1.6,2.731,2.731,0,0,0-3.5-.2Z" fill="#2462eb"/>
      <path id="Path_2944" data-name="Path 2944" d="M235.4,213.5l24.1,2.5c1.2.1,1.3-1.7,1.1-2.4a2.87,2.87,0,0,0-2.4-2.3l-24.1-2.5c-1.2-.1-1.3,1.7-1.1,2.4A2.991,2.991,0,0,0,235.4,213.5Z" fill="#2462eb"/>
      <path id="Path_2945" data-name="Path 2945" d="M272.9,218l3.8.4c.2,0,0-.9,0-.8a5.775,5.775,0,0,0-.6-1.7,4.617,4.617,0,0,0-.9-1.5l-.2-.4a.52.52,0,0,0-.4-.2l-3.8-.4c-.2,0,0,.9,0,.8a5.775,5.775,0,0,0,.6,1.7,4.617,4.617,0,0,0,.9,1.5l.3.3c.1.2.2.2.3.3Z" fill="#2462eb"/>
      <path id="Path_2946" data-name="Path 2946" d="M231.6,226l24.1,2.5a4.454,4.454,0,0,0,2.9-1.2c.2-.1,1.8-1.8.9-1.8l-24.1-2.6a4.454,4.454,0,0,0-2.9,1.2c-.3.2-1.8,1.8-.9,1.9Z" fill="#2462eb"/>
      <path id="Path_2947" data-name="Path 2947" d="M271.4,231.2l3.8.4a.749.749,0,0,0,.7-.6,2.966,2.966,0,0,0-.2-1.6,4.355,4.355,0,0,0-1-1.6,1.855,1.855,0,0,0-1.2-.7l-3.8-.4a.576.576,0,0,0-.6.6,2.966,2.966,0,0,0,.2,1.6,4.355,4.355,0,0,0,1,1.6A1.442,1.442,0,0,0,271.4,231.2Z" fill="#2462eb"/>
      <path id="Path_2948" data-name="Path 2948" d="M147.2,198.2c-.3,12.7-.1,25.4.7,38.2,0,.4,5-.1,4.9-.7-.8-12.7-1.1-25.4-.7-38.2.1-.2-4.9-.1-4.9.7Z" fill="#2462eb"/>
      <path id="Path_2949" data-name="Path 2949" d="M148.6,250.8v5.5a1.612,1.612,0,0,0,.6,1.3,3.287,3.287,0,0,0,1.7.4,3.594,3.594,0,0,0,1.8-.7,2.189,2.189,0,0,0,.8-1.4v-5.6a1.612,1.612,0,0,0-.6-1.3,2.543,2.543,0,0,0-1.7-.4,2.875,2.875,0,0,0-1.8.7,2.057,2.057,0,0,0-.8,1.5Z" fill="#2462eb"/>
      <path id="Path_2950" data-name="Path 2950" d="M168,213v27.8a2.135,2.135,0,0,0,2.1,2.2h.1c1.1,0,2.7-.7,2.7-2V213.2a2.135,2.135,0,0,0-2.1-2.2h-.1C169.7,211,168,211.7,168,213Z" fill="#2462eb"/>
      <path id="Path_2951" data-name="Path 2951" d="M326.3,215v43c0,2.5,5,2.2,5-.3v-43c0-2.4-5-2.2-5,.3Z" fill="#2462eb"/>
      <path id="Path_2952" data-name="Path 2952" d="M326.1,272.8V286a3.462,3.462,0,0,0,2,2.8c.7.4,2,.5,2-.7V275a3.462,3.462,0,0,0-2-2.8c-.7-.4-2-.6-2,.6Z" fill="#2462eb"/>
      <path id="Path_2953" data-name="Path 2953" d="M361.2,221.2v27.1a4.158,4.158,0,0,0,1.8,3c.9.6,1.5.1,1.5-.9v-27a4.354,4.354,0,0,0-1.8-3.1C361.8,219.8,361.2,220.2,361.2,221.2Z" fill="#2462eb"/>
      <path id="Path_2954" data-name="Path 2954" d="M365.3,208.6v-6.2c0-.4-.6-.9-.9-1.1a3,3,0,0,0-1.8-.6,2.223,2.223,0,0,0-1.6.3l-.3.3a.778.778,0,0,0-.2.8v6.2c0,.4.6.9.9,1.1a3,3,0,0,0,1.8.6,2.223,2.223,0,0,0,1.6-.3l.3-.3a1.077,1.077,0,0,0,.2-.8Z" fill="#2462eb"/>
    </g>
  </g>
</svg>
