<svg xmlns="http://www.w3.org/2000/svg" width="28" height="40" viewBox="0 0 28 40">
  <g id="Group_989" data-name="Group 989" transform="translate(380 3148)">
    <rect id="Rectangle_228" data-name="Rectangle 228" width="28" height="40" transform="translate(-380 -3148)" fill="none"/>
    <g id="Group_988" data-name="Group 988" transform="translate(78 -226)">
      <path id="Path_2790" data-name="Path 2790" d="M110.785,66.815a7.312,7.312,0,0,0-7.7,2.275,7.44,7.44,0,0,0-1.715,4.69,7.264,7.264,0,0,0,4.519,6.708c.038.016.076.029.114.042l.09.032.1.037c.109.042.219.084.332.118a7.316,7.316,0,0,0,7.792-2.247,7.258,7.258,0,0,0,1.234-7.281A5.477,5.477,0,0,1,110.785,66.815Zm-2.086,11.2a4.283,4.283,0,1,0-1.468-.261A4.288,4.288,0,0,0,108.7,78.015Z" transform="translate(-552.66 -2981.163)" fill="#444" fill-rule="evenodd"/>
      <path id="Path_2791" data-name="Path 2791" d="M88.04,171.057c6.4,0,11.041,2.922,11.041,6.948s-4.643,6.949-11.041,6.949S77,182.031,77,178.005,81.643,171.057,88.04,171.057Zm0,10.868c4.418,0,8-1.755,8-3.92s-3.581-3.92-8-3.92-8,1.755-8,3.92S83.623,181.926,88.04,181.926Z" transform="translate(-532 -3069.795)" fill="#444" fill-rule="evenodd"/>
      <path id="Path_2792" data-name="Path 2792" d="M178.492,45.172a3.586,3.586,0,1,0-3.586-3.586A3.586,3.586,0,0,0,178.492,45.172Z" transform="translate(-614.997 -2957)" fill="#2462eb"/>
    </g>
  </g>
</svg>
