<svg xmlns="http://www.w3.org/2000/svg" width="391.989" height="367.278" viewBox="0 0 391.989 367.278">
  <g id="Free_Illustration_Problem" data-name="Free Illustration Problem" transform="translate(-53.7 -66.44)">
    <g id="rocket">
      <path id="Path_2859" data-name="Path 2859" d="M184.7,261.4c-4.6-19.8-29.1-32.3-47.2-21.6-3.9,2.3-7.6,5.8-9.2,10.2-1.7,4.5-.6,9.4,4.1,11.4a17.855,17.855,0,0,0,6.9,1.1c2.7,0,5.3-.9,6.4-3.5,1.7-4.2-.5-9-3.1-12.2-6-7.4-19.9-12.1-27.6-4.6a1.872,1.872,0,0,0,0,2.6l.3.3a2.868,2.868,0,0,0,3.5-.4c2.3-2.3,5.9-2.4,8.9-1.7a19.825,19.825,0,0,1,8.9,4.5c2.4,2.1,4.6,5.3,4.7,8.6,0,1.1-.1,2.4-1.4,2.4a12.865,12.865,0,0,1-5.1-.7c-3.2-1.3-2.6-5.2-1.3-7.7a17.981,17.981,0,0,1,7.8-7.4c6.8-3.6,14.8-3.2,21.7-.1,8,3.6,14.8,11,16.8,19.6a2.268,2.268,0,0,0,2.7,1.7C183.5,263.6,185,262.6,184.7,261.4Z" fill="#2462eb"/>
      <path id="Path_2860" data-name="Path 2860" d="M175.1,281.9c-11-.9-21.5,3.3-29.9,10.1A62.672,62.672,0,0,0,134,303.8c-1.7,2.4-3.7,5-4.2,8a9.889,9.889,0,0,0,2.6,8.2c1.2,1.4,3.4,2.8,5.4,1.9,2.4-1.2,1.8-4.4,1-6.4a9.287,9.287,0,0,0-5.8-5.8,31.231,31.231,0,0,0-8.6-1.1,54.181,54.181,0,0,0-54.6,39.6c-.2.9.6,2.2,1,3,.1.2,1.3,1.9,1.5,1.2a53.968,53.968,0,0,1,58.3-39,25.007,25.007,0,0,1,3.8.6,7.494,7.494,0,0,1,1.6.5c.2.1.5.2.7.3.1.1.8.7,1,.7l-.5-1v.2c0,.3-.1.5-.1.8a2.281,2.281,0,0,1-.6,1.2,2.778,2.778,0,0,1-2.6.8,5.639,5.639,0,0,1-1.2-.4c-.3-.1-.7-.7-.9-.7l.6,1.4-.1-.5c.1-.4,0-.8.1-1.2a8.78,8.78,0,0,1,.7-2.3,28.432,28.432,0,0,1,4.2-6.6,59.028,59.028,0,0,1,10.1-10.5c8.4-6.8,18.9-11.3,29.9-10.4.8.1,0-1.6-.1-1.9-.6-.4-1.3-2.4-2.1-2.5Z" fill="#2462eb"/>
      <g id="rocket-2">
        <path id="Path_2861" data-name="Path 2861" d="M309.9,285.1C336.6,236.4,354.1,146,354.1,146c-25.4-25-65.4-27.7-65.4-27.7s-52.5,76.1-72,143.7c-7.6,26.5-10.2,49.4-10.2,67.9.9-.7,1.8-1.4,2.8-2.1,8.1-6.1,19-12.1,27.8-7.1,9.2,5.3,9,18.7,6,29-.8,2.7-1.7,5.4-2.7,8a88.424,88.424,0,0,1,17.6-8.3C276.7,331.5,297.3,308,309.9,285.1Z" fill="#2462eb"/>
        <path id="Path_2862" data-name="Path 2862" d="M312.3,285.1c8.1-14.8,14.2-30.7,19.7-46.7s10.2-32.4,14.5-48.8c3.1-11.8,5.9-23.7,8.4-35.6.5-2.5,1.1-5.1,1.6-7.6a.9.9,0,0,0,.1-.5,2.407,2.407,0,0,0-.6-.8,33.29,33.29,0,0,0-2.8-2.5,82.541,82.541,0,0,0-11.2-8.2c-13.1-8.1-28.1-13.1-43.2-15.6-2.9-.5-5.9-.9-8.8-1.2-1.6-.1-3.1.1-4,1.4-.6.8-1.1,1.7-1.7,2.5-6.1,9.1-11.9,18.4-17.5,27.8q-13.95,23.25-26,47.4a406.618,406.618,0,0,0-23.5,56.2A259.319,259.319,0,0,0,204.6,317c-.3,4.4-.5,8.8-.5,13.2,0,1.2,4.1.4,4.7,0,4.1-3.2,8.4-6.4,13.1-8.5,4.1-1.9,8.4-2.8,12.6-.6,7.4,3.9,8.6,13.3,7.8,20.8a62.2,62.2,0,0,1-4.2,15.9c-.5,1.4,4.1.5,4.6.2a81.1,81.1,0,0,1,9.2-4.9c1.5-.7,3.1-1.3,4.6-1.9s3.3-.9,4.5-2.1c4.7-4.5,9.3-9.2,13.8-14a297.835,297.835,0,0,0,25.8-31.3,215.664,215.664,0,0,0,11.7-18.7c.5-.9-4.1-1.2-4.8,0-10.5,19-24.4,36-39.3,51.7q-6.15,6.45-12.6,12.6l1.1-.6a93.557,93.557,0,0,0-18.4,8.6l4.6.2c3.4-9,6.6-19.5,3.4-29a15.341,15.341,0,0,0-8.4-9.4c-5.3-2.3-11.5-1.6-16.9.3-6.2,2.2-11.5,6-16.6,10h4.7a237.114,237.114,0,0,1,7.1-56.2A334.13,334.13,0,0,1,235,219.1c7.2-16.5,15.3-32.5,24.1-48.2,6.8-12.2,13.9-24.3,21.4-36.2,2.4-3.8,4.8-7.5,7.2-11.2,1.1-1.7,2.4-3.4,3.4-5.1a.349.349,0,0,1,.1-.2l-3.6.8a80.815,80.815,0,0,1,8.6,1.1,127.233,127.233,0,0,1,21,5.5,104.957,104.957,0,0,1,25.2,12.8c2.1,1.5,4.1,3.1,6.1,4.8.9.8,1.8,1.7,2.8,2.5.2.2.4.2.4.4a6.466,6.466,0,0,1-.4,2c-2,10-4.3,19.9-6.7,29.8-4.1,17-8.7,33.9-14.1,50.5-5.6,17.4-11.9,34.8-20.1,51.2-.9,1.8-1.8,3.5-2.8,5.3C307,286,311.6,286.3,312.3,285.1Z" fill="#2462eb"/>
        <path id="Path_2863" data-name="Path 2863" d="M254.8,294.5a12.58,12.58,0,0,0,4.3.4c6.3-.5,23.9-3.8,29-25.7,6.2-26.9-27-39.9-42.3-22C231,264.5,236.9,289.5,254.8,294.5Z" fill="#fff"/>
        <path id="Path_2864" data-name="Path 2864" d="M252.6,295.5c4.4,1.2,9.6.1,13.9-1.3a37.457,37.457,0,0,0,14.3-8,34.55,34.55,0,0,0,9.7-17.6,25.5,25.5,0,0,0-1.5-17c-4.7-9.5-15.5-14.4-25.8-13.5a30.367,30.367,0,0,0-16.3,6.5,33.138,33.138,0,0,0-10.6,17c-3.1,11.9.6,26.2,12.1,32.2a19.443,19.443,0,0,0,4.2,1.7,4.622,4.622,0,0,0,3-.7c.2-.1,2-1.1,1.4-1.3-11.6-3.3-17.7-15-17.2-26.5a33.245,33.245,0,0,1,6.5-18.2,23.235,23.235,0,0,1,5.8-5.9,13.5,13.5,0,0,1,2.6-1.5c.3-.1.5-.2.8-.3-.4.2.3-.1.4-.1a.6.6,0,0,1,.4-.1l.9-.3a14.455,14.455,0,0,1,2.9-.4,19.3,19.3,0,0,1,3.4,0,24.192,24.192,0,0,1,7,1.4,25.745,25.745,0,0,1,11.4,8.1c7.3,9.5,5.1,23-1.2,32.4a28.485,28.485,0,0,1-5.4,6.1,19.409,19.409,0,0,1-2.9,2.1c-.4.2-.7.4-1.1.6l-.7.4-.4.2c.2-.1,0,0-.1,0-.5.2-1,.4-1.4.6.5-.2-.3.1-.4.1l-.8.3-.3.1h0l-.7.2-.7.2-.3.1c-.4.1.2-.1,0,0a20.48,20.48,0,0,1-2.4.5c.5-.1-.5.1-.7.1-.3,0-.7.1-1,.1a10.821,10.821,0,0,1-4.4-.3,5.246,5.246,0,0,0-3,.6C253.8,294.3,251.9,295.3,252.6,295.5Z" fill="#2462eb"/>
        <path id="Path_2865" data-name="Path 2865" d="M256.9,288.6a9.82,9.82,0,0,0,3.4.3c5-.4,18.8-3,22.9-20.3,4.9-21.2-21.3-31.5-33.4-17.3C238.2,265,242.8,284.6,256.9,288.6Z" fill="#000005"/>
        <path id="Path_2866" data-name="Path 2866" d="M248.7,185.6s-1-102.2,5.6-101.6,34.4,34.3,34.4,34.3Z" fill="#fff"/>
        <path id="Path_2867" data-name="Path 2867" d="M251.2,185.6c-.1-6.3-.1-12.7-.1-19,0-13.3.2-26.6.6-39.8.3-11.6.6-23.3,2.3-34.8.1-.9.3-1.8.4-2.7.1-.4.1-.8.2-1.1,0-.2.1-.3.1-.5s.2-.7.1-.3a5.228,5.228,0,0,1,.6-1.6l.3-.6c0-.1.1-.1.1-.2.2-.3-.3.2,0,.1.4-.3-.4.2-.5.2s-.9.1-1,.1c.1,0-.8-.1-.5,0s-.7-.2-.2,0-.1-.1.1,0a1.69,1.69,0,0,0,.5.2,3.287,3.287,0,0,1,.6.3l.2.1c.4.3-.1-.1.2.1a51.722,51.722,0,0,1,6.2,5.2c8.9,8.4,16.9,17.7,24.7,27.1.2.3-.3-.2,0,0l.2.2.1.2V118l-13.6,22.9L251.2,177l-4.9,8.3c-.9,1.5,3.9,2.2,4.8.7l13.6-22.9L286.2,127l4.9-8.3a.854.854,0,0,0,0-.7c-7.1-8.6-14.5-17.1-22.4-25a84.214,84.214,0,0,0-7-6.4A16.236,16.236,0,0,0,256,83c-1.8-.5-4-.3-5.1,1.3a10.377,10.377,0,0,0-1.2,3.5,81.168,81.168,0,0,0-1.7,13c-.5,6.3-.8,12.6-1.1,19-.5,13.8-.7,27.7-.8,41.6v15.9c0,2.6-.1,5.3,0,8v.4C246.2,187.4,251.2,187.4,251.2,185.6Z" fill="#000005"/>
        <path id="Path_2868" data-name="Path 2868" d="M334.8,222.1s77.6-68.9,66.6-73.5S354,146,354,146Z" fill="#fff"/>
        <path id="Path_2869" data-name="Path 2869" d="M336.7,222.7c4.6-4.1,9.1-8.2,13.7-12.4,9.4-8.6,18.6-17.4,27.7-26.5,8-8,16.3-16.2,22.9-25.5,1.6-2.3,4-5.3,4-8.2a2.605,2.605,0,0,0-1.3-2.4c-2.3-1.4-5.5-1.7-8-2.1a142.5,142.5,0,0,0-23.5-1.3c-5.6,0-11.2.1-16.7.4h-.9c-.8.1-2.6.3-2.9,1.4l-6.5,25.8-10.4,41-2.4,9.3c-.5,1.8,4.5,1.4,4.9-.1l6.5-25.8,10.4-41,2.4-9.3-2.9,1.4a246.79,246.79,0,0,1,34.4.1,59.721,59.721,0,0,1,9.3,1.4,12.663,12.663,0,0,1,1.8.6c.1,0,1,.3.4.1.1,0,.2.1.3.1.1.1-.2-.3.1.1,0,.1.1.1.1.2h0a2.034,2.034,0,0,0,.1.5v.3h0a7.494,7.494,0,0,1-.5,1.6l-.9,1.8c-.4.7-.8,1.4-1.2,2a103.428,103.428,0,0,1-8.8,11c-4.1,4.6-8.3,9-12.6,13.4-8.9,9.1-18.2,17.9-27.5,26.5-3.4,3.2-6.9,6.4-10.4,9.5l-1,.9-.5.4-.3.2-1.5,1.4-1.8,1.6-.2.2c-.7.6-.7,1.4.3,1.7A3.223,3.223,0,0,0,336.7,222.7Z" fill="#000005"/>
        <path id="Path_2870" data-name="Path 2870" d="M291.9,203.9s39.4-92,36.1-93.4-38.8,88.2-40.9,91.3S291.9,203.9,291.9,203.9Z" fill="#fff"/>
        <path id="Path_2871" data-name="Path 2871" d="M294,205.3l4.2-9.9c3.3-7.8,6.6-15.6,9.8-23.4,3.8-9.2,7.6-18.4,11.3-27.7,3-7.7,6-15.3,8.7-23.1.8-2.3,1.5-4.7,2.1-7.1a6.279,6.279,0,0,0,.3-1.9c-.1-1.5-1.7-2.6-3-3-1.8-.6-2.6.8-3.4,2.2a64.722,64.722,0,0,0-3.6,6.9c-3.7,7.7-7.2,15.6-10.5,23.5-4,9.3-7.9,18.7-11.9,28.1-3.2,7.6-6.4,15.3-9.6,22.9-.9,2.1-1.8,4.3-2.8,6.4a9.143,9.143,0,0,1-.7,1.4,2.289,2.289,0,0,0-.4,2.1c.6,1.4,2.4,2.4,3.8,2.8a10.994,10.994,0,0,0,5.1.1c1.1-.2.5-1.2,0-1.7-.7-.7-2-1.7-3.1-1.5-.6.1-1.1.1-1.7.2h-1.4c.1,0-.4-.1-.4-.1-.2.1.1-.1.1,0a21.958,21.958,0,0,1,1.8,1.4c.3,0-.2.3.1-.1l.3-.6c.1-.2.1-.1.1-.2l.3-.6c.8-1.7,1.5-3.5,2.3-5.2l8.7-20.7c3.8-9,7.5-18,11.3-27,3.5-8.2,7-16.3,10.7-24.4,1.3-2.8,2.7-5.7,4.1-8.5a32.343,32.343,0,0,1,2.7-4.4c.1-.1.2-.1.2-.2-.3.3-.1,0,0,0h.1a1.388,1.388,0,0,1-.9,0,6.9,6.9,0,0,1-2.8-2c-.2-.2,0-.4,0-.1v.3c0,.3-.1.6-.1.8a8.648,8.648,0,0,1-.6,2.3,33.819,33.819,0,0,1-1.1,3.4c-2.4,7.2-5.1,14.3-7.9,21.4-3.5,8.9-7.1,17.8-10.7,26.6-3.3,8-6.7,16.1-10,24.1-1.8,4.4-3.7,8.7-5.5,13.1l-.3.6C289.2,204.1,293.5,206.5,294,205.3Z" fill="#000005"/>
      </g>
      <path id="Path_2872" data-name="Path 2872" d="M254.5,271.2a146.277,146.277,0,0,0,11.6-9.2c.8-.7-.6-1-1.1-1a4.885,4.885,0,0,0-3.3.9c-3.7,3.2-7.6,6.3-11.6,9.2-.9.7.6,1,1.1,1a5.033,5.033,0,0,0,3.3-.9Z" fill="#fff"/>
      <path id="Path_2873" data-name="Path 2873" d="M265.1,277.3l8.9-6.9a1.72,1.72,0,0,0,.1-2.4,1.38,1.38,0,0,0-.4-.3,3.007,3.007,0,0,0-3.5-.2l-8.9,6.9a1.634,1.634,0,0,0-.1,2.4,1.38,1.38,0,0,0,.4.3A2.856,2.856,0,0,0,265.1,277.3Z" fill="#fff"/>
      <path id="Path_2874" data-name="Path 2874" d="M286,139a107.859,107.859,0,0,1,19.1,6.6c.8.4,1.1.1.6-.7a6.672,6.672,0,0,0-2.7-2.3,117.15,117.15,0,0,0-19.9-6.9c-1-.2-.1,1,.1,1.2A6.307,6.307,0,0,0,286,139Z" fill="#fff"/>
      <path id="Path_2875" data-name="Path 2875" d="M319,154l10.9,4.8,5.2,2.3,2.8,1.2,1.2.5.8.4h0l-.8-1v-1.1l-.1.2c-.8,1.9,3.2,4.9,4.1,2.7,1.1-2.6-2.4-4.3-4.2-5.1l-6.7-3-13.4-5.8c-.9-.4-2.1-.2-2.1,1A3.685,3.685,0,0,0,319,154Z" fill="#fff"/>
      <path id="Path_2876" data-name="Path 2876" d="M334.5,153l5.1-15.1c.3-.9-.8-2.2-1.3-2.9-.3-.3-1.7-1.6-2-.7l-5.1,15.2c-.3.9.8,2.2,1.3,2.9.3.2,1.7,1.5,2,.6Z" fill="#fff"/>
      <path id="Path_2877" data-name="Path 2877" d="M296.7,137.6a65.145,65.145,0,0,1,6.6-13.2c.6-1-.4-2.1-1.3-2.4s-2.6-.4-3.2.6a68.233,68.233,0,0,0-6.9,14.1,1.553,1.553,0,0,0,.5,1.4,3.048,3.048,0,0,0,1.6.8,2.206,2.206,0,0,0,2.7-1.3Z" fill="#fff"/>
      <path id="Path_2878" data-name="Path 2878" d="M264.4,334.7a321.444,321.444,0,0,0,27.4-40,322.009,322.009,0,0,0,21.1-43.9c3.3-8.5,6.3-17.2,8.8-25.9.3-1-4.5-2.2-4.9-1.1a314.009,314.009,0,0,1-17,45.1A317.521,317.521,0,0,1,276,311.1c-5.1,7.6-10.5,15-16.2,22.1-.7.9,3.9,2.4,4.6,1.5Z" fill="#fff"/>
      <path id="Path_2879" data-name="Path 2879" d="M58.5,408.7c4.5-8.5,9.3-18.6,18.1-23.4a14.658,14.658,0,0,1,6.1-2h-.1a7.008,7.008,0,0,1,1.4.3,16.586,16.586,0,0,1,3.1,1.2,9.718,9.718,0,0,1,5.2,8.9c-.1,3.6-2.2,7.7-6,8.6l4.7.2c1.5-8.3,6.1-15.5,11.6-21.8,2.8-3.2,5.7-6.1,8.7-9a93.538,93.538,0,0,1,10-8.9,27.405,27.405,0,0,1,11.2-5.2,16.117,16.117,0,0,1,9.4,1.6,23.1,23.1,0,0,1,13.6,16.3,24.765,24.765,0,0,1-7,22.8l5,.1c-3.5-4.1-.8-9.8,1.8-13.6a163.694,163.694,0,0,1,11-13.9,275.687,275.687,0,0,1,25.3-25.4c4.6-4,9.2-7.9,14-11.7s9.3-7.5,14.5-10.4a35.371,35.371,0,0,1,7.7-3.4,15.142,15.142,0,0,1,3.7-.7c-.9,0,.7.2.9.2a14.275,14.275,0,0,1,2.2.8,15.02,15.02,0,0,1,8.1,9.8c2.8,9.7-.6,20.2-4.1,29.2-1.2,3-2.4,5.8-3.8,8.7a39.49,39.49,0,0,1-4.3,7.5,7.229,7.229,0,0,1-3.1,2.3c-.2.1-.5.1-.7.2,3-1.2,3.1.5,1.9-.1a3.956,3.956,0,0,1-1.5-1c-1.8-2.2.2-5.1,1.8-6.8,7.7-8.1,17.8-14.4,28.1-18.6a81.427,81.427,0,0,1,16.2-4.7c2.7-.5,5.4-.8,8.1-1.1a26.758,26.758,0,0,1,8,.2c10.7,2.5,13.1,16,11.7,25.3a35.61,35.61,0,0,1-14.4,23.7,35.06,35.06,0,0,1-6,3.3l4.9.2a10.6,10.6,0,0,1,6.1-9.9,8.866,8.866,0,0,1,6.4-.9,25.212,25.212,0,0,1,5.4,2.1,24.8,24.8,0,0,1,12.7,18.7c.1.6,5,.3,5,.1a24.934,24.934,0,0,0-10.8-17.6,23.907,23.907,0,0,0-10.4-3.9c-4.2-.6-9.2-.6-13.1,1.2a10.582,10.582,0,0,0-6.3,10.1c0,.5,4.4.4,4.9.2,9.5-4,16.5-12.5,19.5-22.2a33.42,33.42,0,0,0,1-15.4c-.9-5.2-3.2-10.7-7.9-13.5a20.451,20.451,0,0,0-9.1-2.3,87.49,87.49,0,0,0-27.7,3.1,85.629,85.629,0,0,0-31.7,16.7,36.42,36.42,0,0,0-6.6,6.4c-1.5,2.1-2.1,5.1.6,6.5a8.424,8.424,0,0,0,3.5.7,18.532,18.532,0,0,0,4.7-.2c2.6-.6,4.3-3,5.5-5.2a107.593,107.593,0,0,0,8.4-19,52.108,52.108,0,0,0,3.1-15.6c.1-4.7-.7-9.7-3.5-13.6-3.3-4.5-8.4-6-13.7-6.1-12.9-.3-23,8.7-32.5,16.3a300.507,300.507,0,0,0-29,26.3c-4.6,4.8-9,9.7-13.1,14.8-2,2.5-4,5-5.9,7.6a22.609,22.609,0,0,0-3.8,7.4,7.74,7.74,0,0,0,1.3,7.2c.4.5,1.9.3,2.5.3s2,.2,2.5-.2a24.655,24.655,0,0,0,7.2-21.7,23.261,23.261,0,0,0-13.9-17.6,30.875,30.875,0,0,0-12-2.3,27.677,27.677,0,0,0-12.4,2.3,43.192,43.192,0,0,0-11.1,7.9c-3.4,3.1-6.8,6.4-10,9.8-7,7.2-13.3,15.6-15.2,25.7-.1.4,4.3.3,4.7.2,3.9-.9,6.2-4.2,6.6-8.1a10.037,10.037,0,0,0-5.7-10,16.976,16.976,0,0,0-6.6-1.7,27.42,27.42,0,0,0-8.1.4c-5,1.1-9.3,4.4-12.6,8.2-4.4,5.1-7.6,11.2-10.7,17.2a18.663,18.663,0,0,0,2.5.4c.2-.2,2.1,0,2.3-.5Z" fill="#2462eb"/>
      <path id="Path_2880" data-name="Path 2880" d="M417,189.8a76.646,76.646,0,0,0,7,14.4c.5.8,2,1.1,2.8,1.3.2,0,2.3.4,1.9-.2a79.748,79.748,0,0,1-7-14.4c-.1-.3-.8-.6-1-.7a6.357,6.357,0,0,0-1.8-.6c-.3,0-2.1-.5-1.9.2Z" fill="#2462eb"/>
      <path id="Path_2881" data-name="Path 2881" d="M424.4,185.8a170.227,170.227,0,0,0,6,19.6c.6,1.6,5.4.3,4.9-1.1a185.117,185.117,0,0,1-6-19.6c-.4-1.6-5.3-.5-4.9,1.1Z" fill="#2462eb"/>
      <path id="Path_2882" data-name="Path 2882" d="M431.4,216.9l-1-.9c-.2-.2-.5-.4-.7-.6a5.548,5.548,0,0,0-.8-.6,4.236,4.236,0,0,1-.7-.5l-.6-.3-.2-.1c-.1,0-.2,0-.1.1l.1.2.6.6,1,.9c.2.2.5.4.7.6a5.548,5.548,0,0,0,.8.6,4.236,4.236,0,0,1,.7.5l.6.3.2.1c.1,0,.2,0,.1-.1l-.1-.2-.6-.6Z" fill="#2462eb"/>
      <path id="Path_2883" data-name="Path 2883" d="M432.5,212.8l.1,1.3a.908.908,0,0,0,.3.7,1.344,1.344,0,0,0,.6.7l.5.4a2.843,2.843,0,0,0,1.2.4h.7l.5-.1h.2l.5-.2h0l.1-.1c.1-.1.2-.3.4-.4l.1-.1c.1-.1.1-.2.1-.4.1-.1.1-.2.1-.4V214a1.33,1.33,0,0,0-.3-.8,1.344,1.344,0,0,0-.6-.7,2.178,2.178,0,0,0-.8-.5,1.613,1.613,0,0,0-.9-.3h-.6a1.4,1.4,0,0,0-.9.3l-.3.3a.972.972,0,0,0-.1.9V213l.2-.4a.349.349,0,0,1-.1.2l.3-.4-.2.2.4-.2-.2.1.5-.1h.4l2.6,2.3-.1-1.3a.908.908,0,0,0-.3-.7,1.344,1.344,0,0,0-.6-.7,5.549,5.549,0,0,0-.8-.6,1.613,1.613,0,0,0-.9-.3H434a1.4,1.4,0,0,0-.9.3l-.3.3c-.3.5-.4.8-.3,1.1Z" fill="#2462eb"/>
      <path id="Path_2884" data-name="Path 2884" d="M151.6,126.9c3.8,16.6,8.4,33.2,9.5,50.2.1,1.5,4.7,3.2,4.6,1.6-1.2-17-5.7-33.6-9.5-50.2-.2-1-1.5-1.7-2.4-2-.4-.1-2.4-.6-2.2.4Z" fill="#2462eb"/>
      <path id="Path_2885" data-name="Path 2885" d="M167.8,121.2a139.122,139.122,0,0,0,9.4,52.6c.4,1,1.3,2.3,2.5,2.1s1.4-1.6,1.1-2.6a134.829,134.829,0,0,1-9.1-50.2,3.183,3.183,0,0,0-1.6-3.1,1.478,1.478,0,0,0-2,.5.908.908,0,0,0-.3.7Z" fill="#2462eb"/>
      <path id="Path_2886" data-name="Path 2886" d="M166.1,188l.1,1.6v.2a2.388,2.388,0,0,0,.2.9,3.043,3.043,0,0,0,.8.8,5.936,5.936,0,0,0,.8.4,3.6,3.6,0,0,0,1.1.2,4.879,4.879,0,0,0,1.7-.1,3.552,3.552,0,0,0,.9-.4c.3-.2.5-.4.8-.6a2.092,2.092,0,0,0,.4-.6,1.445,1.445,0,0,0,.2-.7,1.7,1.7,0,0,0-.1-.7.918.918,0,0,0-.4-.6,3.039,3.039,0,0,0-.7-.5l-.6-.3a1.421,1.421,0,0,0-.6-.2,8.663,8.663,0,0,0-1-.2h-1.6a2.92,2.92,0,0,0-.9.2,2.994,2.994,0,0,0-.8.4,1.024,1.024,0,0,0-.5.6.878.878,0,0,0-.1.7,1.445,1.445,0,0,0,.2.7,2.434,2.434,0,0,0,1.4,1,4.084,4.084,0,0,0,1.9.1l.2-.1-.6.1h-.1a1.268,1.268,0,0,1,.6.1l-.6-.1a1.422,1.422,0,0,1,.6.2l-.6-.2c.2.1.3.2.5.3l-.5-.3h0l-.6-1.4h0l.1-.5c0,.1-.1.2-.2.3l.3-.4c-.1.1-.2.2-.3.2l.4-.3c-.1.1-.2.1-.3.2l.5-.2c-.1,0-.2.1-.3.1l.6-.1h.2l.6.1-.2-.1.6.3c-.1,0-.1-.1-.2-.1l1,1.7-.1-1.8a1.7,1.7,0,0,0-.1-.7.918.918,0,0,0-.4-.6,2.177,2.177,0,0,0-.8-.5,1.613,1.613,0,0,0-.9-.3,2.777,2.777,0,0,0-1.8.3l-.4.3a1.268,1.268,0,0,0-.4.9Z" fill="#2462eb"/>
      <path id="Path_2887" data-name="Path 2887" d="M177.4,182.8a.6.6,0,0,0-.1.4c0,.2-.1.3-.1.5v.8c.1.3.2.5.3.8.1.1.1.3.2.4a3.257,3.257,0,0,0,2.7,1.2,4.013,4.013,0,0,0,1.5-.3A6.524,6.524,0,0,0,184,185c.1-.2.3-.4.4-.6,0-.1.1-.1.1-.2a3.21,3.21,0,0,0,.2-1.7.6.6,0,0,0-.1-.4c-.1-.3-.2-.5-.3-.8-.1-.1-.2-.3-.3-.4l-.6-.6-.6-.3c-.1,0-.1,0-.2-.1a1.7,1.7,0,0,0-.7-.1h-.2a2.92,2.92,0,0,0-.9.2,3.552,3.552,0,0,0-.9.4,2.336,2.336,0,0,0-.7.7,3.039,3.039,0,0,0-.5.7,1.7,1.7,0,0,0,0,1.4,1.612,1.612,0,0,0,1.3.6h.3l-.5-.1c.1,0,.2.1.4.1l-.4-.2a1.38,1.38,0,0,1,.4.3l-.3-.3a2.092,2.092,0,0,1,.4.6l-.2-.4a1.7,1.7,0,0,1,.1.7V184c0,.2,0,.3-.1.4l.1-.5c0,.1-.1.2-.1.3l.3-.5c0,.1-.1.1-.1.2l.4-.5-.2.2.5-.4-.2.1.6-.3-.2.1.6-.2-.2.1.6-.1h-.3l.5.1c-.2,0-.3-.1-.5-.1l.4.2a2.092,2.092,0,0,1-.6-.4l.3.3a2.092,2.092,0,0,1-.4-.6l.2.4a.749.749,0,0,1-.1-.5v.1l-.1.5c0-.1,0-.1.1-.2a1.7,1.7,0,0,0,0-1.4,1.563,1.563,0,0,0-1.2-.6,2.715,2.715,0,0,0-1.7.6,2.527,2.527,0,0,0-1.4,1.5Z" fill="#2462eb"/>
      <path id="Path_2888" data-name="Path 2888" d="M321.2,102.1V88.3c0-1,.2-1.8,1.4-1.6a28.115,28.115,0,0,1,3.1,1l6.8,2.3a4.678,4.678,0,0,0,2.6.5c.9-.3,1.2-1.2,1.6-1.9l3.2-6.2,6.5-12.6c.5-1-3.5-3.8-3.7-3.3l-6.6,12.8c-1,2.1-2.1,4.1-3.2,6.2-.5,1-.9,1.8-2.1,1.6a19.3,19.3,0,0,1-3.4-1.1c-2.3-.8-4.5-1.5-6.8-2.3-1.5-.5-3-.8-3.1,1.2-.2,4.7,0,9.5,0,14.3,0,.9,1.4,1.9,2,2.4.1.1,1.7,1.2,1.7.5Z" fill="#2462eb"/>
      <path id="Path_2889" data-name="Path 2889" d="M345.5,114.1a134.675,134.675,0,0,1,20.2-26.2l-4.6-.2,4.1,10.4c.5,1.3,3.8,1,4.6.2a229.358,229.358,0,0,0,22.8-26.5c.6-.9-1.3-1.4-1.8-1.4a3.523,3.523,0,0,0-3.1.9,229.986,229.986,0,0,1-22.3,26l4.6.2L365.9,87c-.5-1.3-3.8-1-4.6-.2a135.059,135.059,0,0,0-20.7,26.8c-.8,1.4,4,1.9,4.9.5Z" fill="#2462eb"/>
      <path id="Path_2890" data-name="Path 2890" d="M355.1,123.3l20.3-7a1.225,1.225,0,0,0,.9-1.5,1.612,1.612,0,0,0-.4-.7,3.421,3.421,0,0,0-3.5-.8l-20.3,7a1.184,1.184,0,0,0-.9,1.5,1.612,1.612,0,0,0,.4.7,3.471,3.471,0,0,0,3.5.8Z" fill="#2462eb"/>
    </g>
    <g id="character">
      <path id="Path_2891" data-name="Path 2891" d="M414.4,224.7c-.8-1.2-9.8-9.5-13.3-14.1s-8.1-3.7-13.8-1.4-4.7,7.3.4,5.8,6-.7,6-.7a19.383,19.383,0,0,0-7.3,5.3c-2.7,3.6-2.8,7.3-.7,7.2s4.2-3.9,6.6-4.7c0,0-4.5,7.1-1.8,9.7s6-5,6-5,2.2,6.9,7.5,8.1a26.375,26.375,0,0,0,10.1.2C414,235,422.3,236.3,414.4,224.7Z" fill="#fff"/>
      <path id="Path_2892" data-name="Path 2892" d="M416.6,223.6a14.211,14.211,0,0,0-2.4-2.5l-4.2-4.2c-1.6-1.6-3.2-3.2-4.7-4.9-1.4-1.5-2.5-3.4-4.1-4.6-4-3-9.5-1.2-13.7.4-2.3.9-4.9,2.3-6,4.6a2.752,2.752,0,0,0,.8,3.8c2.2,1.4,5.1,0,7.3-.4.4-.1.8-.1,1.2-.2h.8c.3,0,0-.1-.1,0s.1,0,.1,0l2.1-2.6c-5,1.9-10.3,5.9-11.7,11.3a3.615,3.615,0,0,0,.3,3.2c.8,1.1,2.5.9,3.6.5a11.351,11.351,0,0,0,3.9-2.5l1.4-1.4c.2-.2.5-.4.7-.6s.3-.2,0-.1l-2.1-.8c-1.6,2.5-4.8,8.7-1.2,10.9,2.5,1.4,5.7-1,7.2-2.8a17.01,17.01,0,0,0,2.6-4.3L394,228a15.11,15.11,0,0,0,3.3,5.6c3.1,3.3,7.8,3.6,12.1,3.4a14.066,14.066,0,0,0,2.8-.3,1.952,1.952,0,0,0,.7-.1c.8-.2-.5.1-.7,0,.2.2,1,.1,1.3.1,2.2-.1,4.9-1.1,6-3.2,1.8-3.2-1.2-7.5-2.9-9.9-.9-1.4-5.3,1-4.5,2.3a25.331,25.331,0,0,1,2.8,5.1,5.759,5.759,0,0,1,.5,2.9c0,.2,0,0-.1.3s.2-.2-.1.1a3.591,3.591,0,0,1,1-.7c-.3.1.6-.1.1,0s-.1,0,.1,0h-1.8c-.8.1-1.7.2-2.5.3-3.6.2-7.7,0-10.3-2.7a13.3,13.3,0,0,1-3.2-5.5c-.2-.7-1.7-.3-2.1-.1a4.381,4.381,0,0,0-2.3,1.7,18.211,18.211,0,0,1-1.5,2.7,4.811,4.811,0,0,1-.9,1.1c-.1.1-.1.2-.2.2s1.4-.8,1.4-.5c0,.1-.4-.2-.3-.1a2.7,2.7,0,0,1-.7-.8c-1.2-2.4,1-6.2,2.3-8.2.8-1.3-1.6-1-2.1-.8-2.4.9-3.9,2.6-5.8,4.3a7.368,7.368,0,0,1-.6.5s.9-.2.9-.3-.1-.1-.2-.2l-.3-.9a3.887,3.887,0,0,1,.2-1.5,9.986,9.986,0,0,1,4.3-5.6,11.252,11.252,0,0,1,2.1-1.2c.1-.1.9-.4.5-.2h.1c.7-.3,3.3-1.6,2.1-2.6a3.661,3.661,0,0,0-1.8-.4,20.527,20.527,0,0,0-5.5,1c-1,.3-2.5.4-2.7-1-.2-1.2,1-1.9,1.9-2.2,3.5-1.4,7.5-2.5,10.6.6,1.2,1.2,2.3,2.7,3.4,4,1.3,1.4,2.7,2.9,4.1,4.2s2.9,2.9,4.3,4.3a26.078,26.078,0,0,1,2.3,2.4C413.1,227.2,417.5,224.8,416.6,223.6Z" fill="#000005"/>
      <path id="Path_2893" data-name="Path 2893" d="M399.1,415.4s-.8,16-.3,16,7.6-.2,7.6-.2v-6.4l3.5,7,23.8-1.3s.8-2.3-4.6-4.9-14-6.2-14-6.2L415,410Z" fill="#fff"/>
      <path id="Path_2894" data-name="Path 2894" d="M396.7,416c-.2,3.3-.3,6.6-.4,10a31.265,31.265,0,0,0,0,5.3,1.747,1.747,0,0,0,.9,1.8,7.067,7.067,0,0,0,2.5.2l6.2-.2c1.2,0,3-1,3-2.4v-6.4l-4.7,1.6,3.5,7a1.689,1.689,0,0,0,1.7.8l20.8-1.1,3-.2a3.2,3.2,0,0,0,2.9-1.9,3.638,3.638,0,0,0-.9-3.2c-1.7-2.2-4.5-3.3-7-4.4-3.8-1.7-7.6-3.4-11.4-5l.8,1.1-.2-9.5c0-1.6-2.1-1.3-3.1-1l-15.9,5.4c-.9.3-2,1.5-1.6,2.5s2.1.8,3,.5l15.9-5.4-3.1-1,.2,9.5a1.17,1.17,0,0,0,.8,1.1c3.4,1.4,6.8,2.9,10.1,4.4,2.3,1,5,1.9,6.8,3.7a3.587,3.587,0,0,1,1,1.4c-.1-.3,0,.3,0,.4s.1-.4,0-.2l2.9-1.9L413.6,430l-3,.2,1.7.8-3.5-7c-1-2-4.7-.3-4.7,1.6V432l3-2.4c-2.5.1-5.1.2-7.6.2l1.1.2c.1,0,.8.6.7.9v-2.7c0-1.8.1-3.6.1-5.5.1-2.5.2-5.1.3-7.6C401.6,412.5,396.8,413.8,396.7,416Z" fill="#000005"/>
      <path id="Path_2895" data-name="Path 2895" d="M396.3,414.8s.8,16,.3,16-7.6-.2-7.6-.2v-6.4l-3.5,7-23.8-1.3s-.8-2.3,4.6-4.9,14-6.2,14-6.2l.2-9.5Z" fill="#fff"/>
      <path id="Path_2896" data-name="Path 2896" d="M394,415.7c.1,2.5.2,5.1.3,7.6.1,1.8.1,3.6.1,5.3v2.5c0,.2-.2.4.1,0l1.9-1.2h0l1.7-.4c-2.5,0-5.1-.1-7.6-.2l.9.5v-6.4c0-1.6-4.2.5-4.7,1.3l-3.5,7,4.2-1.9-20.8-1.1-3-.2.5.3c-.1-.3-.1-.2,0-.5a2.371,2.371,0,0,1,.9-1.5c1.6-1.6,4.2-2.4,6.2-3.3,3.1-1.4,6.3-2.8,9.5-4.1.5-.2,2-.8,2-1.5l.2-9.5-4.5,1.8,15.9,5.4a4.19,4.19,0,0,0,3.1-.6c.2-.1,2.1-1.3,1.2-1.6L382.7,408a3.658,3.658,0,0,0-2.5.3c-.5.2-2,.8-2,1.5l-.2,9.5,2-1.5c-4,1.7-8,3.4-12,5.2-2.6,1.2-5.6,2.4-7.6,4.7a3.285,3.285,0,0,0-1,2.8.55.55,0,0,0,.5.3l20.8,1.1,3,.2c1.4.1,3.5-.5,4.2-1.9l3.5-7-4.7,1.3v6.4c0,.5.5.5.9.5l5.5.2a9.637,9.637,0,0,0,2.4,0c1.2-.1,3.2-.8,3.6-2.1a19.274,19.274,0,0,0,0-4.8c0-2.3-.1-4.6-.2-7-.1-1.4-.1-2.9-.2-4.3C398.6,413,393.9,414.2,394,415.7Z" fill="#000005"/>
      <path id="Path_2897" data-name="Path 2897" d="M409.2,312.9s11.6,102.4,8.3,105-18.4-1.2-18.4-1.2l-1-21.5.4,21.7s-18.8-.3-23.9-2.2c0,0-8.3-91.9-8.3-106S409.2,312.9,409.2,312.9Z" fill="#000005"/>
      <path id="Path_2898" data-name="Path 2898" d="M407.4,312.1c.5,4.3,1,8.7,1.4,13,1.1,10.1,2.1,20.2,3.1,30.2,1.1,11.2,2.2,22.5,3.1,33.8.4,4.7.7,9.4,1,14.1.1,1.8.2,3.7.2,5.5v4a26.35,26.35,0,0,1-.2,2.8c0,.1-.1.3-.1.4s.2-.4,0,0-.1,0,.1-.1a5.926,5.926,0,0,0-.6.4c-2.4.9-5.4.4-7.9.1a72.686,72.686,0,0,1-7.9-1.4l-1.3-.3,2.6,2.9-.9-18.8V396a4.033,4.033,0,0,0-1.9-2.7c-.6-.3-1.9-.5-1.9.6l.4,19v2.7l1.1-.9c-3.3-.1-6.6-.2-9.9-.4-2.6-.2-5.2-.4-7.9-.6-1.1-.1-2.3-.3-3.4-.5-.5-.1-.9-.2-1.4-.3a3.179,3.179,0,0,1-.9-.3l2.2,2.8c-.6-6.4-1.2-12.9-1.7-19.3-1.2-13.7-2.4-27.3-3.5-41-1-12.4-2-24.8-2.8-37.2-.1-1.9-.2-3.9-.3-5.8v-2.6a1.483,1.483,0,0,1,.1-.7v-.3c-.1.4,0,0,.1-.1a2.909,2.909,0,0,1,1.4-1.7,2.185,2.185,0,0,1,.5-.3c.3-.2.1-.1.3-.1a8.8,8.8,0,0,1,1.5-.5,20.573,20.573,0,0,1,7-.1,90.831,90.831,0,0,1,17.8,4.4,123.176,123.176,0,0,1,12,4.5l.6.3a1.083,1.083,0,0,0,1.6-1.2,3.7,3.7,0,0,0-2.2-2.8,141.381,141.381,0,0,0-27.2-8.7,39.987,39.987,0,0,0-8.4-.9,12.226,12.226,0,0,0-6.5,1.5c-3.2,2.1-2.5,6.4-2.3,9.6.5,11.6,1.5,23.2,2.5,34.9,1.1,14.2,2.3,28.3,3.6,42.5.7,7.9,1.2,15.9,2.1,23.8v.4a3.7,3.7,0,0,0,2.2,2.8c4.4,1.6,9.5,1.6,14.2,1.9,3.4.2,6.8.4,10.2.4.5,0,1.2-.2,1.1-.9l-.3-19v-2.7l-3.8-2,.9,18.8.1,2.7a3.546,3.546,0,0,0,2.6,2.9,60.791,60.791,0,0,0,14,2.1c1.6,0,4.6.1,5.5-1.5a5.374,5.374,0,0,0,.5-2.1,60.28,60.28,0,0,0,0-8.5c-.2-4.4-.5-8.7-.8-13.1-.8-11.2-1.8-22.4-2.9-33.6-1-10.7-2.1-21.3-3.3-32-.6-5.4-1-10.9-1.8-16.3v-.2a3.7,3.7,0,0,0-2.2-2.8,1.129,1.129,0,0,0-1.5.4A2.479,2.479,0,0,0,407.4,312.1Z" fill="#000005"/>
      <line id="Line_74" data-name="Line 74" x2="3.7" y2="82.6" transform="translate(395.4 334.1)" fill="none"/>
      <path id="Path_2899" data-name="Path 2899" d="M393,334.7l1.2,27.9,2,44.5.5,10.2c.1,1.3,4.9.4,4.8-1.3l-1.2-27.9-2-44.5-.5-10.2c0-1.2-4.9-.4-4.8,1.3Z" fill="#fff"/>
      <path id="Path_2900" data-name="Path 2900" d="M383.4,227.5s-6.6,3.8-11.6,1.8-14.3-7.2-17.1-2.6,3.3,8.9,8,9.6c0,0-5.8,13,.8,19.4s11,5.5,9.7,11.1c0,0,6.5,12.8,11.1,2.9.7-1.5,11.5-19.9,1.6-30.5C385.8,239.1,380,233.6,383.4,227.5Z" fill="#fff"/>
      <path id="Path_2901" data-name="Path 2901" d="M382.2,225.3a18.609,18.609,0,0,1-6.9,2.2c-3.4.3-6.5-1.7-9.5-2.9s-6.6-2.7-9.9-1.7c-3.7,1.1-4.7,5.5-3.3,8.8,1.7,3.9,6.1,6.4,10.2,7.1l-2-3.8c-2.6,5.8-3.9,13.6-.8,19.4a19.042,19.042,0,0,0,5.5,5.8c1.7,1.3,3.6,2.3,5.2,3.5l.3.3c.5.4-.4-.3.1.1.1.1.1.2.2.3-.5-.6,0,.2-.1-.2s0,.5,0-.2v.5c0,.4.1-.5,0,.2,0,.3-.1.5-.1.8a4.807,4.807,0,0,0,1,3.3c1.5,2.5,3.5,5.4,6.4,6.5,3.7,1.5,6-1.4,7.6-4.5,2.9-5.8,5.5-11.9,5.8-18.5.2-5.2-1.1-10.6-4.7-14.5a2.651,2.651,0,0,1-.5-.6c-.1-.2.5.6.3.3-.2-.2-.3-.4-.5-.6-.2-.3-.5-.6-.7-.9,0-.1-.3-.4,0,0-.2-.3-.3-.5-.5-.8a6.428,6.428,0,0,1,.1-6.3c1.1-2-2.3-5.5-3.6-3-2.6,4.8-.8,10.5,2.7,14.3l.5.5c-.3-.3.3.4.4.5.2.3.5.6.7.9a10.757,10.757,0,0,1,1.3,2.9,17.8,17.8,0,0,1,.5,6.9,41.27,41.27,0,0,1-3.9,12.8c-.5,1-1,2.1-1.6,3.1a10.886,10.886,0,0,1-1.4,2.3,2.136,2.136,0,0,1-1.7.8c.3,0-.2,0-.3-.1s0,0,.1,0c-.1,0-.2-.1-.3-.1s-.6-.3-.4-.2-.4-.3-.5-.4-.4-.3-.5-.5l-.2-.2c-.3-.4-.6-.7-.9-1.1l-.4-.6-.2-.3c.2.3-.1-.2-.2-.3l-.3-.4a4.053,4.053,0,0,1-.5-.9l.4,1.8a7.369,7.369,0,0,0-2.2-7.4c-2-1.9-4.7-3.1-6.8-4.8a10.972,10.972,0,0,1-2.9-3.2,7.308,7.308,0,0,1-.8-3.3,20.563,20.563,0,0,1,.8-7.4c.4-1.3.8-2.6,1.3-3.8a2.983,2.983,0,0,0-1.9-3.8h-.1a10.774,10.774,0,0,1-4.2-1.6,5.81,5.81,0,0,1-2.2-2.2,1.7,1.7,0,0,1,0-1,2.434,2.434,0,0,1,1-1.4,4.678,4.678,0,0,1,2.6-.5c3,.2,5.9,1.7,8.6,2.8,3,1.3,5.8,2.4,9.2,2a19.914,19.914,0,0,0,7.1-2.4C386.7,228.5,384.3,224.1,382.2,225.3Z" fill="#000005"/>
      <path id="Path_2902" data-name="Path 2902" d="M392.5,260.6s5.2,5.6,8.4,2.8-1.4-4.5-1.4-4.5,9-4,3.4-9.3c0,0,8.6-1.9,7.5-9.5s-11.5-9.6-11.5-9.6,4.9-7.4-2.2-10.6-8.4,2.4-8.4,2.4-4.5-2.1-6.2.5.8,5.5.8,5.5-3.5,8.2,2.9,10.6l-.3,12.8a8.416,8.416,0,0,0-4.1,7C381.2,263.7,389.8,265.6,392.5,260.6Z" fill="#000005"/>
      <path id="Path_2903" data-name="Path 2903" d="M390.1,260.3c2.7,2.9,6.7,5,10.8,4.7,1.7-.2,4.3-1.8,3.4-3.8-.5-1.3-2.2-2.1-3.4-2.5l1,1a12.136,12.136,0,0,0,3.9-2.8c2-2.3,1.6-4.8-.5-6.8l-.4.5c3.3-.8,6.9-3.1,7.7-6.6,1.5-5.8-3.5-10.1-8.2-12.2a27.221,27.221,0,0,0-5.5-1.8l2.3,1.2c1.5-2.4,2.4-5.8.8-8.3s-5.1-3.7-7.9-4.2c-2.2-.4-4.9-.6-6.7.9a4.774,4.774,0,0,0-1.6,2.6l4.3.4a15.6,15.6,0,0,0-6.7-1.5,4.665,4.665,0,0,0-3.4,1.1,3.831,3.831,0,0,0-.8,3.7,4.714,4.714,0,0,0,.6,1.5l.6.9s0-.2-.1,0-.1.4-.2.6a10.637,10.637,0,0,0-.6,5c.4,2.9,2.3,4.6,4.9,5.7l-1.1-.8-.1,5.9-.1,4.4a9.662,9.662,0,0,1-.1,2.4c0,.1.2-.1-.1.1a4.812,4.812,0,0,0-1.1.9,9.636,9.636,0,0,0-2.6,4.2,5.123,5.123,0,0,0,.6,4.5,8.829,8.829,0,0,0,4.4,2.7c3.7,1.1,8.7,1.2,10.9-2.6.3-.5-4.2-2.1-4.9-1a5.685,5.685,0,0,1-3.2,2.5,4.1,4.1,0,0,1-1.1.1c0,.1-.1-.2.1,0s.1,0,.1,0a2.187,2.187,0,0,1-.5-.3c-2.6-1.8-1.6-5.5-.1-7.7a14.463,14.463,0,0,1,2.2-2.1c.4-.3.3-.3.4-.8.2-2.1.1-4.4.2-6.5l.1-5.8c0-.4-.8-.7-1.1-.8-3.7-1.5-3-6.9-1.8-9.8v-.2c-1.2-1.4-1.9-3.7-.7-5.3a2.322,2.322,0,0,1,1.9-.9c-.4,0-.2-.2-.1,0,.2.1.3.1.1,0s-.1,0,.1,0,.9.4.1,0c.5.2,4,1.4,4.3.4a4.963,4.963,0,0,1,1.3-2.2c1.6-1.4,3-.9,4.5.4,2.5,2.3,1.5,6.3-.2,8.9-.3.5,2.2,1.1,2.3,1.1l.2.1c-.6-.2-.4-.1.1,0l.4.1c.5.1-.3-.1.1,0a6.944,6.944,0,0,1,1.3.5,13.356,13.356,0,0,1,5,3.5,7.883,7.883,0,0,1-.5,11.1l-1.2.9a10.389,10.389,0,0,1-3.4,1.5c-.1,0-.6.2-.4.5,2,2,2.4,4.3.4,6.4a11.114,11.114,0,0,1-3.6,2.5c-.6.3.9,1,1,1-.7-.3.1.1.1.1a3.46,3.46,0,0,1,1.1,1,1.535,1.535,0,0,1,0,1.6,4.3,4.3,0,0,1-.9,1c-.2.1-.6.2-.7.4h-.2a3.4,3.4,0,0,1,1,.1c.1,0-.2-.1-.4-.2a8.636,8.636,0,0,1-1.6-1,10.7,10.7,0,0,1-1.6-1.4,5.193,5.193,0,0,0-2.9-1.1C391.8,259.8,389.6,259.8,390.1,260.3Z" fill="#000005"/>
      <path id="Path_2904" data-name="Path 2904" d="M381.3,240.8s6.6-5.4,9.6-2.1-2.8,15.6-9.1,11.2" fill="#fff"/>
      <path id="Path_2905" data-name="Path 2905" d="M382.7,242.9a15.873,15.873,0,0,1,3.5-2.2c.3-.1-.5.2-.2.1l.2-.1.4-.2a6.891,6.891,0,0,1,.8-.3,6.378,6.378,0,0,0,.7-.2c.1,0,.6-.1.1,0s.1,0,.2,0h.7s-.6-.1-.3,0h.1c.1,0,.3.1.4.1s-.3-.1-.3-.1l.1.1c.1.1.2.1.3.2,0,0-.4-.4-.3-.2s.1.1.2.1l.1.1c.3.2-.3-.3-.3-.3l.3.4s-.3-.7-.2-.3c0,.1.1.2.1.3s.1.5,0,0,0-.1,0,0c0,.2.1.4.1.6v.1a1.7,1.7,0,0,1-.1.7,1.483,1.483,0,0,0-.1.7c0,.3,0,.2-.1.4s0,.1,0,.2c0,.2.2-.6.1-.2a13.9,13.9,0,0,1-1.2,2.8c-.1.2.2-.3.2-.3l-.1.2-.2.3a4.233,4.233,0,0,0-.5.7,1.18,1.18,0,0,1-.5.5l-.3.3-.1.1c-.3.3.4-.3.2-.1a14.624,14.624,0,0,1-1.3.9l-.1.1c-.2.1.6-.2.2-.1l-.3.1-.4.1c-.1,0-.6.1-.1,0s0,0-.1,0h-.2c-.1,0-.3-.1-.4-.1l-.4-.1c-.1,0-.3-.1.1,0s.1,0,0,0a2.177,2.177,0,0,1-.8-.5,2.139,2.139,0,0,0-2.9.8c0,.1-.1.1-.1.2a2.9,2.9,0,0,0,1.2,3.3,6.937,6.937,0,0,0,7.8,0,12.24,12.24,0,0,0,4.5-6.2c.9-2.4,1.3-5.2.1-7.5a5.588,5.588,0,0,0-3.7-3,7.909,7.909,0,0,0-4.3.3,18.348,18.348,0,0,0-5.5,3,2.491,2.491,0,0,0-.5,3.3c.7.9,2.2,1.7,3.2.9Z" fill="#000005"/>
      <path id="Path_2906" data-name="Path 2906" d="M376.4,234a1.028,1.028,0,0,0-1.2.7v.1a.83.83,0,0,0,1.6.4.894.894,0,0,0-.4-1.2Z" fill="#000005"/>
      <path id="Path_2907" data-name="Path 2907" d="M329,225.7c.1-1.4,4.1-9.2,4.7-14.8s4.9-7.2,10.8-8.2,7.6,3.7,2.6,5.1-5.3,2.4-5.3,2.4a17.5,17.5,0,0,1,8.8.8c4.1,1.6,6,4.7,4.3,5.7s-5.5-1.1-7.9-.6c0,0,7.4,3.7,6.4,7.2s-7.6-1.1-7.6-1.1,1.7,6.8-2.2,10.5a24.77,24.77,0,0,1-8.3,5.2C335.2,237.9,328.3,239.4,329,225.7Z" fill="#fff"/>
      <path id="Path_2908" data-name="Path 2908" d="M331.5,226.2a9.979,9.979,0,0,1,1-2.9c.7-1.7,1.4-3.4,2-5.1a34.129,34.129,0,0,0,1.6-5.7c.3-1.6.4-3.2,1.3-4.6,1.8-2.6,5.3-3.3,8.2-3.7a4.868,4.868,0,0,1,1.2-.1c.2,0,.6.1.4,0,.3.1.2,0,.3.1-.2-.1.2.2.1.1s.1.2.2.2v.6a2.56,2.56,0,0,1-1.3,1c-1.8.7-3.8,1-5.5,2a3.159,3.159,0,0,0-1.4,1.4c-.5,1.5,2.5,2.2,3.4,2,3.2-.6,7.4-.3,9.7,2.3a2.177,2.177,0,0,1,.5.8c.1.2,0,.4.1.5s-.1,0,.2,0H353c-2.2-.4-4.4-1.2-6.7-.8-1.5.2-2.1,1.7-.5,2.5.9.5,1.8,1,2.7,1.6,1.1.8,2.8,2.1,2.8,3.6,0,.3-.3.6-.3.8h0s.5-.1.1-.1h.2s-.6-.1-.3-.1-.3-.1-.3-.1l-.6-.3-.2-.1c-.2-.1-.3-.2-.5-.3-.3-.2-.7-.4-1-.6l-.9-.6c-.9-.6-4.4-1-3.9.9a13.067,13.067,0,0,1,.1,5.9c-.8,3.7-4.3,6-7.5,7.6a10.092,10.092,0,0,1-1.5.7c-.3.1-1.2.4-.1.1h-.2c-.5.1.6,0,.1,0-.8,0,.5.1,0,0-.1,0-.2-.1-.4-.1.5,0,.5.2.1,0s.4,0,.1,0-.5-.4-.1,0l-.4-.4c-.1,0-.1-.1-.2-.2h0c-2.2-2-2.2-5.9-2.1-8.9.1-1.2-1.1-1.8-2.1-2-.7-.1-2.7-.2-2.8.9-.2,5.5.5,13,7.2,14.1a6.189,6.189,0,0,0,3.8-.4,24.164,24.164,0,0,0,5-2.7c1.9-1.3,3.9-2.8,4.9-4.9a13.635,13.635,0,0,0,.8-9.1l-3.9.9a19.477,19.477,0,0,0,4.5,2.4c2.2.8,5.9,1.3,6.9-1.4,1.5-3.9-4.4-7.6-7.2-9l-.5,2.5a9.737,9.737,0,0,1,3.4.6,9.409,9.409,0,0,0,4.1.2c2.7-.5,3.1-2.9,1.5-4.9-3.6-4.5-10.7-5.7-16.2-4.7l3.4,2c0-.1-.2.5-.1.3s.1-.1-.1.1a4.129,4.129,0,0,1,1.1-.7c1.9-.9,4.3-1,6-2.4a3.179,3.179,0,0,0,1.2-3.7c-.8-1.7-2.8-2.6-4.5-3a16.645,16.645,0,0,0-7,.5,17.3,17.3,0,0,0-5.7,2.2,8.313,8.313,0,0,0-3.3,4.1c-.7,1.9-.7,4-1.3,5.9a58.314,58.314,0,0,1-2.5,7,15.667,15.667,0,0,0-1.5,4.3C326.4,227.3,331.3,228.2,331.5,226.2Z" fill="#000005"/>
      <path id="Path_2909" data-name="Path 2909" d="M326.4,227s-16.2,24.8-12.4,33.8,53.4,29.1,53.4,29.1-9.4,36.7-3.8,38,48.7-.4,52.5-4.7-6.8-35.9-6.8-35.9,33.9-26.2,34.7-34.8-28-29-28-29l-8.2,14.3,4.9,16.2s-10,7.6-27.1,8.9c-15.8,1.2-46.9-9.3-46.9-9.3l8.8-16.9Z" fill="#fff"/>
      <path id="Path_2910" data-name="Path 2910" d="M324.7,225.2a111.862,111.862,0,0,0-8.9,16.3c-2.9,6.4-7,15.7-1.9,22a30.073,30.073,0,0,0,6.4,5.4c3.3,2.2,6.8,4.2,10.3,6.1,7.5,4,15.2,7.7,23,11.1,4.6,2,9.1,4,13.8,5.9l-1.8-3.5a225.471,225.471,0,0,0-4.9,24.2c-.6,4.3-1.5,9.5-.1,13.8a5.271,5.271,0,0,0,3.8,3.7,37.077,37.077,0,0,0,4.7.3,229.839,229.839,0,0,0,34.2-1.7c4.2-.5,8.9-.9,12.8-2.7,3.4-1.6,2.7-6.3,2.3-9.4a115.493,115.493,0,0,0-3.6-16.5c-1.2-4.2-2.4-8.3-3.8-12.4l-.2-.6-.3,2.4a237.212,237.212,0,0,0,28.2-24.8,39.246,39.246,0,0,0,5.7-7.2,8.1,8.1,0,0,0,.7-7.4c-1.2-3.2-3.6-6.1-5.9-8.6a101.781,101.781,0,0,0-8.9-8.5c-4.5-3.9-9.2-7.6-14-11-.5-.4-1.6-.9-2.1,0L406.8,235c-.3.5-.6,1-.9,1.6a3.658,3.658,0,0,0,.3,2.5l2.5,8.3,2,6.7.5-1.8a35.968,35.968,0,0,1-8.2,4.4,54.9,54.9,0,0,1-20.7,4.4,83.48,83.48,0,0,1-17.9-2.2c-5.8-1.2-11.6-2.7-17.4-4.4-3.1-.9-6.1-1.8-9.1-2.8l2.1,4.1,8.9-17a3.154,3.154,0,0,0-1.6-3.9l-18.4-8.6-2.7-1.2a1.188,1.188,0,0,0-1.7.4,1.884,1.884,0,0,0-.2.8,3.675,3.675,0,0,0,1.9,3l18.3,8.6,2.7,1.2-1.6-3.9-8.8,16.9c-.8,1.6.6,3.6,2.1,4.1a235.986,235.986,0,0,0,24.6,6.8,106.577,106.577,0,0,0,18.7,2.6,56.314,56.314,0,0,0,21.1-3.8,45.709,45.709,0,0,0,10.6-5.3,1.681,1.681,0,0,0,.5-1.8l-4.9-16.2-.2,1.5,8.2-14.3h-2.1c3.8,2.7,7.5,5.6,11.1,8.6A105.273,105.273,0,0,1,435,242a46.131,46.131,0,0,1,3.7,4c.2.3.5.6.7.9s.3.3.4.5c-.4-.5,0,.1.1.1.4.6.8,1.2,1.2,1.9.1.1.1.3.2.4-.3-.6,0-.1,0,0s.2.5.3.8h0c0,.1.1.3.1.4l.1.3c.1.6,0-.2,0,.1v.6c0-.7,0,.1-.1.2s-.1.4-.2.6-.2.5,0,.1c-.1.1-.1.3-.2.4a32.044,32.044,0,0,1-5.2,6.9A180.512,180.512,0,0,1,419.2,276c-3.8,3.2-7.7,6.4-11.6,9.5-.8.6-.5,1.6-.3,2.4a20.949,20.949,0,0,0,.8,2.3,3.583,3.583,0,0,0,.4,1.1.349.349,0,0,0,.1.2,2.353,2.353,0,0,1,.2.8c.3,1.1.7,2.2,1,3.3,1.6,5.3,3,10.6,4.1,16,.2,1.2.5,2.5.6,3.8a28.25,28.25,0,0,1,.2,2.9v2.1c-.1.3-.1.6-.2.9.2-.4-.1.2-.3.4.3-.4,0,0-.2.1a2.994,2.994,0,0,1-.8.4l-.4.2-.2.1a4.507,4.507,0,0,1-1.1.3,61.769,61.769,0,0,1-6.2,1.2,226.309,226.309,0,0,1-33.9,2.3h-3.2a18.482,18.482,0,0,1-2.4-.1,13.552,13.552,0,0,1-2-.2c-.2,0-.5-.1-.7-.1s-.4-.2.1.1c-.3-.2.3.2.3.3l.1.1c-.2-.2.4.6.2.3-.3-.5.1.3.1.2a.367.367,0,0,1-.1-.3l.1.3a1.007,1.007,0,0,1-.1-.3c-.1-.4-.1-.7-.2-1.1.1.5,0,0,0-.2v-.6a48.608,48.608,0,0,1,.3-6.6,207.671,207.671,0,0,1,5-25.9,4.331,4.331,0,0,1,.1-.5,3.431,3.431,0,0,0-1.8-3.5c-11.1-4.5-22-9.4-32.7-14.9-6.4-3.3-12.4-6.3-17.8-10.9h0l-.3-.3a3.171,3.171,0,0,1-.5-.6c-.1-.2-.3-.3-.4-.5-.3-.3.3.6.1.2-.1-.1-.1-.2-.2-.4-.4-.6.3.4,0,0-.1-.1-.1-.3-.2-.5.2.6,0,0,0-.1s-.1-1-.1-.5c0-.5-.1-.9-.1-1.4.1-3.6,1.5-7.6,3-11.1a117.793,117.793,0,0,1,9.7-18.2C329.1,227.2,326,223.3,324.7,225.2Z" fill="#000005"/>
      <path id="Path_2911" data-name="Path 2911" d="M370.5,246.3l.3-.9-.2.4a8.258,8.258,0,0,1,1.4-2.2l-4.4,1.2,3.2,2.6a3.339,3.339,0,0,0,2.6.1,3.7,3.7,0,0,0,1.1-.5,2.189,2.189,0,0,0,.9-1,13.97,13.97,0,0,1,.9-2.9c.1-.4-.3-.7-.5-.8a4.3,4.3,0,0,0-1.6,0,3.774,3.774,0,0,0-2.7,1.7,13.968,13.968,0,0,0-.9,2.9l4.6-1.5-3.2-2.7a2.443,2.443,0,0,0-2.2-.1,3.842,3.842,0,0,0-2.2,1.3,11.118,11.118,0,0,0-1.8,3.4.688.688,0,0,0,.5.8,4.3,4.3,0,0,0,1.6,0c1-.3,2.3-.8,2.6-1.8Z" fill="#000005"/>
    </g>
  </g>
</svg>
