<svg xmlns="http://www.w3.org/2000/svg" width="430.828" height="364.09" viewBox="0 0 430.828 364.09">
  <g id="character" transform="translate(-34.617 -68.312)">
    <path id="Path_2826" data-name="Path 2826" d="M261.4,328.5s23.6,75.2,57.5,72.3,121.3-66.5,121.3-66.5L418.6,283l-84.3,32.5L318.1,294Z" fill="#fff"/>
    <path id="Path_2827" data-name="Path 2827" d="M260.1,328.4c1,3.3,2.2,6.6,3.5,9.8a240.583,240.583,0,0,0,10,22.7,136.046,136.046,0,0,0,15.6,24.8c5.3,6.5,11.9,13,20,15.9a26.028,26.028,0,0,0,11.1,1.5,57.846,57.846,0,0,0,10.2-2.2,152.47,152.47,0,0,0,25-10.6c9.5-4.8,18.7-10,27.8-15.5,9-5.4,17.8-10.9,26.5-16.7,6.9-4.6,13.8-9.2,20.6-13.9,3.5-2.4,6.9-4.8,10.3-7.3l.5-.3c.6-.4.4-1.5.1-2.1L434,317.1l-11.6-27.5-2.7-6.4c-.3-.7-1.2-2.8-2.3-2.4L409,284l-20.1,7.8-24.4,9.4-21.1,8.1-7,2.7a15.067,15.067,0,0,0-3.3,1.3.1.1,0,0,0-.1.1l1.4.7-14.1-18.9-2-2.7c-.2-.3-.9-1-1.4-.7l-19.2,11.7L267.2,322l-7,4.3c-1.4.8,1,5.2,2.2,4.5l19.2-11.7,30.5-18.6,7-4.3-1.4-.7,14.2,18.9,2,2.7c.3.4.9.9,1.4.7l8.4-3.2,20.1-7.8,24.4-9.4,21.1-8.1,6.9-2.7c1.1-.4,2.2-.8,3.3-1.3a.1.1,0,0,0,.1-.1l-2.3-2.4,7.3,17.4,11.6,27.5,2.7,6.4.1-2.1c-2.3,1.7-4.6,3.3-7,5-6,4.2-12,8.3-18.1,12.4-8.3,5.5-16.6,10.9-25.1,16.2-9.1,5.6-18.2,11-27.6,16a246.912,246.912,0,0,1-26,12.3c-6.5,2.5-13.9,5.2-21,4.6-7.9-.6-14.7-5.5-20-10.8a81.078,81.078,0,0,1-8.3-10.1q-2.1-3-3.9-6c-.6-1-1.2-2-1.9-3.1-.3-.5-.6-1-.8-1.4l-.7-1.2c-2.2-4-4.3-8.1-6.2-12.2-.9-1.9-1.8-3.9-2.6-5.8a6.943,6.943,0,0,1-.5-1.3c-.1-.2-.3-.7-.1-.3l-.3-.8c-.4-.9-.7-1.7-1.1-2.6-1.8-4.5-3.5-9-5-13.5l-.2-.6c-.2-.8-1.1-2.4-2-2.4S260,327.9,260.1,328.4Z" fill="#000005"/>
    <path id="Path_2828" data-name="Path 2828" d="M384.9,222.9S416,356.4,439.3,360.1s17.5-12.3,7.1-37.4-48.5-104.1-48.5-104.1Z" fill="#2462eb"/>
    <path id="Path_2829" data-name="Path 2829" d="M382.5,222.5c.9,4.1,2,8.1,3,12.1,2.5,9.9,5.1,19.8,7.9,29.7q5.25,18.75,11.4,37.2a324.152,324.152,0,0,0,13.3,34.3,106.513,106.513,0,0,0,6.9,12.9,39.729,39.729,0,0,0,6.8,8.4c3.5,3,7.7,3.5,12.2,3.9,4.7.4,11.5.3,13.4-5.1a14.653,14.653,0,0,0,.2-7.5,52.346,52.346,0,0,0-2.8-10.1c-2.4-6.8-5.2-13.5-8.1-20.2-5.2-11.9-10.7-23.7-16.2-35.5-6.1-13.1-12.3-26.2-18.5-39.2-3.7-7.8-7.5-15.7-11.2-23.5l-.5-1.1c-.2-.5-1.7-.6-2.1-.7a6.56,6.56,0,0,0-2.8-.1l-12.9,4.3c-.4.1,1.6.7,1.7.7a6.54,6.54,0,0,0,3.1.2l12.9-4.3-4.8-.8c2.6,5.4,5.2,10.9,7.8,16.4,5.8,12.2,11.6,24.3,17.3,36.5,5.9,12.5,11.7,25.1,17.4,37.7,2.1,4.6,4.1,9.3,6.1,14,3.1,7.5,6.5,15.2,8.3,23.1.9,4.2,1.7,10.3-2.7,12.9a12.916,12.916,0,0,1-7.5,1.3,13.61,13.61,0,0,1-2.1-.2s-1.1-.2-.4-.1c.9.2-.8-.2.6.1h0c-.3,0-.2-.1-.1,0l-.4-.1-.7-.4a23.685,23.685,0,0,1-6.6-6.4,73.013,73.013,0,0,1-6.8-11.4,264.511,264.511,0,0,1-13.3-32.1c-4.3-12.2-8.1-24.5-11.7-36.9-3-10.5-5.9-21-8.6-31.6-1.4-5.6-2.9-11.2-4.2-16.9-.1-.3-.1-.5-.2-.8-.1-.5-2-.7-2.4-.7S382.4,222.2,382.5,222.5Z" fill="#2462eb"/>
    <path id="Path_2830" data-name="Path 2830" d="M450.2,311.3c1.9.8,16.1,1.9,12.1,12.7s-12.9,16.5-19.4,11.4S450.2,311.3,450.2,311.3Z" fill="#fff"/>
    <path id="Path_2831" data-name="Path 2831" d="M449.9,312.2a18.246,18.246,0,0,0,2.5.7l1.1.2.2.1c.3.1-.4-.1-.1,0l.8.2a4.952,4.952,0,0,1,1.3.4l.5.2.6.2c.2.1.9.4.3.1l.6.3.4.2h0a4.235,4.235,0,0,1,.7.5c-.3-.2.3.3.3.3l.3.3a5.669,5.669,0,0,1,.8,1.3,6.666,6.666,0,0,1,.4,3.4,21.815,21.815,0,0,1-4.6,9.7c-1.9,2.4-4.5,4.7-7.5,5.5a9.852,9.852,0,0,1-1.7.2h-.7l-.5-.1c.3,0-.4-.1-.1,0s-.7-.3-.3-.1c-.2-.1-.4-.3-.6-.4a1.794,1.794,0,0,1-.5-.7c-.9-1.6-.6-3.8-.2-5.5a35.822,35.822,0,0,1,2.7-7.1,65.978,65.978,0,0,1,6-9.8c.6-.9-3.7-3.2-4.6-1.9a72.693,72.693,0,0,0-5.9,9.6,29.8,29.8,0,0,0-2.9,7.7c-.5,2.2-.6,4.7.8,6.5,2,2.7,6.1,4.3,9.4,4.4a12.724,12.724,0,0,0,9-3.8,24.493,24.493,0,0,0,6.5-10.5,7.975,7.975,0,0,0-1-7.6c-2-2.6-5.2-4.1-8.2-5.1-1.3-.4-2.6-.7-3.9-1l-1.3-.3c-.6-.1.3.1,0,0s-.8-.3.2.1c-.5-.2-2.3-.9-2.7-.1S449.4,312,449.9,312.2Z" fill="#000005"/>
    <path id="Path_2832" data-name="Path 2832" d="M441.5,290.9c2.5,1,20.6,2.9,15.9,15.6s-15.8,19.1-24.4,12.8S441.5,290.9,441.5,290.9Z" fill="#fff"/>
    <path id="Path_2833" data-name="Path 2833" d="M439.5,292.3c1.6.6,3.4.8,5,1.3a24.722,24.722,0,0,1,7.3,3.1A8.928,8.928,0,0,1,456,303c.3,3.9-2,8-4.1,11.1a18.123,18.123,0,0,1-4,4.3,9.214,9.214,0,0,1-3.6,1.7,10.942,10.942,0,0,1-9.5-2.5c-4-3.8-.7-11.1,1.2-15.1,1.5-2.9,3.1-5.7,4.9-8.5.6-.9,1.2-1.8,1.9-2.7l.6-.8c.1-.2.5-.6,0,0,.5-.7.4-1.2-.6-1a5.464,5.464,0,0,0-3.1,1.8,76.944,76.944,0,0,0-7.3,11.5,38.107,38.107,0,0,0-3.6,9.4c-.5,2.5-.5,5.5,1.2,7.5,2.3,2.7,6.5,3.8,10,3.4a21.741,21.741,0,0,0,12.2-6,29.157,29.157,0,0,0,7.8-12.5,8.911,8.911,0,0,0-1.6-8.6c-2.1-2.4-5.3-3.8-8.3-4.8-2.1-.7-4.4-.9-6.5-1.7-.9-.3-2.3.5-3,1C440.3,290.8,438.7,292,439.5,292.3Z" fill="#000005"/>
    <path id="Path_2834" data-name="Path 2834" d="M426.3,267.9s13.4,1,16.9,12.9-9.8,25.9-18,21.1,4.8-21.3,4.8-21.3" fill="#fff"/>
    <path id="Path_2835" data-name="Path 2835" d="M427.1,270a20.086,20.086,0,0,1,8.8,3,11.8,11.8,0,0,1,5,5.8,13.8,13.8,0,0,1,.3,9.4c-1.7,5.5-6.4,11.6-12.4,12.5a6.147,6.147,0,0,1-3.3-.3l-.6-.3c-.1,0-.4-.3-.2-.1l-.1-.1h0c-.3-.3,0,0,0,.1-.3-.6-.1.1-.2-.4s0,.1-.1-.4a1.7,1.7,0,0,1-.1-.7,7.568,7.568,0,0,1,.1-1.5,15.035,15.035,0,0,1,.9-3.5,36.386,36.386,0,0,1,3.9-7.6,39.581,39.581,0,0,1,2.3-3.4c1.2-1.5-2.2-5.1-3.1-3.9a44.861,44.861,0,0,0-6.5,11.2c-1,2.6-1.7,5.5-.9,8.2a9.706,9.706,0,0,0,7.3,6.8c6.8,1.3,13-5.2,15.6-10.8a18.239,18.239,0,0,0,1.4-11.5,21.214,21.214,0,0,0-6.1-10.4,24.43,24.43,0,0,0-13.8-6.3c-2.3-.2.1,4,1.7,4.2Z" fill="#000005"/>
    <path id="Path_2836" data-name="Path 2836" d="M282.1,431.2s5.4-54.4,2.6-110.1l49-19.7S281,210.1,243,204.5a25.924,25.924,0,0,0-15.1-.6C154,198.5,90.8,268,90.8,268l43.3,46.4c-25.9,47-44.5,91.1-44.5,91.1" fill="#fff"/>
    <path id="Path_2837" data-name="Path 2837" d="M284.6,431.2c.7-7.2,1.2-14.4,1.7-21.7,1.1-17.5,1.7-34.9,1.8-52.4,0-12-.2-24-.8-36.1l-.8.8,16.6-6.7,26.2-10.6,6.1-2.5c.4-.2.9-.6.6-1.1-1.8-3.2-3.8-6.3-5.7-9.4-4.8-7.7-9.8-15.2-15-22.6-6.7-9.5-13.7-18.9-21.2-27.7a197.586,197.586,0,0,0-24-24.4c-7.3-6-15.6-11.4-24.9-13.4-1.5-.3-2.9-.8-4.4-1.1a30.018,30.018,0,0,0-7.3-.6,23.079,23.079,0,0,0-3.7.3,14.16,14.16,0,0,0-2,.4c-.2,0-.5.1-.7.1,1-.1-.1-.1-.3-.1-1.9-.1-3.7-.2-5.6-.2a120.2,120.2,0,0,0-22.4,1.8,158.914,158.914,0,0,0-41.4,13.3,219.347,219.347,0,0,0-33.7,19.9,255.974,255.974,0,0,0-23.7,19c-3.8,3.4-7.5,6.9-11,10.6l-.7.8c-.3.3,0,.7.2.9l14.7,15.8,23.2,24.9,5.4,5.8-.2-.9q-13.8,25.2-26.3,51.2-8.1,16.8-15.6,33.9c-.9,2-1.7,4-2.6,6-.7,1.7,4.2,2.1,4.8.7,2.5-5.9,5.2-11.8,7.8-17.7q9.9-21.9,20.8-43.3c5.1-10.1,10.4-20.2,15.9-30.1.2-.4,0-.6-.2-.9l-14.7-15.8L98.3,273.2l-5.4-5.8.2.9.3-.3,1.5-1.5c1.8-1.8,3.6-3.6,5.5-5.4a258.849,258.849,0,0,1,20.4-17.3,230.235,230.235,0,0,1,30.7-19.9,171.2,171.2,0,0,1,38.3-15.3A125.208,125.208,0,0,1,211,205a93.822,93.822,0,0,1,10.6-.3c1.9,0,3.8.1,5.6.2,2.3.1,4.7-.7,7-.8a20.7,20.7,0,0,1,6.6,1c.8.2,1.5.4,2.3.6l.6.1c.1,0,.4.1,0,0l.5.1c1,.2,1.9.5,2.9.8.8.3,1.7.6,2.5.9a59.5,59.5,0,0,1,11.7,6.8c8.9,6.4,16.6,14.3,23.9,22.4,7.6,8.7,14.8,17.7,21.5,27.1,5.7,7.9,11.1,15.9,16.3,24,2.7,4.3,5.4,8.6,8,13l.3.6.7-1.1-16.6,6.7-26.2,10.6-6.1,2.5c-.3.1-.8.5-.7.8,1,20.5,1,41,.4,61.4-.5,13.8-1.2,27.6-2.3,41.4-.2,2.5-.4,4.9-.6,7.4-.4,1.5,4.6,1.7,4.7,0Z" fill="#000005"/>
    <path id="Path_2838" data-name="Path 2838" d="M135.9,334.8s58.6-13.8,87.9-9.1,35.5,32.7,30,38-20.5-18.4-20.5-18.4-3.3,32.5-15.4,27c0,0-4.1,16-16.3,8.1,0,0-13.7,12.1-18.2,5.1s4.8-13.3,4.8-13.3S87.1,440.4,50.5,395.3C3.7,337.6,93.7,271.7,93.7,271.7l64,43.6Z" fill="#fff"/>
    <path id="Path_2839" data-name="Path 2839" d="M136.9,337.1c7.9-1.9,15-3.2,23.1-4.7,15.2-2.7,30.7-4.9,46.1-5.3,7-.2,14-.1,20.9,1.5a42.523,42.523,0,0,1,10.7,4.2,37.126,37.126,0,0,1,4.1,2.8,30.837,30.837,0,0,1,3.3,3,34.678,34.678,0,0,1,3,3.7c.2.3.4.5.6.8l.3.5c.3.4-.3-.5.1.1a16.181,16.181,0,0,1,1,1.8,25.9,25.9,0,0,1,1.7,3.8c.1.2.3.9.1.4l.3.9a12.092,12.092,0,0,1,.5,1.8c.1.6.2,1.1.3,1.7l.1.8.1.4c.1.5,0-.4,0,.1a14.053,14.053,0,0,1,0,2.9c0,.2-.1.4-.1.6s.1-.5,0-.1v.3l-.3,1.2c-.1.2-.1.3-.2.5s.3-.4,0,0a3.508,3.508,0,0,0-.5.8c-.2.3.2-.2.2-.2l-.2.2c-.1.1-.7.4-.1.1l-.5.2c-.4.1.4,0,.1,0h-.4c-.1.1-.6-.1.1,0H251c-.1,0-.8-.2-.4-.1s-.4-.1-.4-.2c-.3-.1-.5-.3-.8-.4-.6-.3.1.1-.3-.2l-.7-.5a17.382,17.382,0,0,1-1.5-1.3l-.7-.7-.3-.3a13.722,13.722,0,0,1-1.6-1.8,95.261,95.261,0,0,1-9-11.9,5.583,5.583,0,0,1-.5-.8,2.112,2.112,0,0,0-2.8-.8,1.781,1.781,0,0,0-1,1.6c0,.3-.1.6-.1.8s-.1.6-.1.9-.1.4-.1.6-.1.9-.1.5,0,.3-.1.5a1.949,1.949,0,0,0-.1.8l-.3,1.8c-.2,1.3-.5,2.6-.8,4a49.438,49.438,0,0,1-2.5,8.3,22.131,22.131,0,0,1-1.6,3.5c-.3.5-.6,1-.9,1.4-.2.2-.4.5-.6.7l-.2.3-.1.1a6.42,6.42,0,0,1-1.3,1c-.1.1-.4.2,0,0-.1.1-.3.1-.4.2-.3.1-.5.2-.8.3s-.5.1,0,0a.6.6,0,0,0-.4.1h-.4a2.92,2.92,0,0,1-.9-.2l-.3-.1c.6.2-.2-.1-.3-.1a1.933,1.933,0,0,0-2.6.7c-.1.1-.1.2-.2.3a14.273,14.273,0,0,1-.8,2.2.758.758,0,0,1-.2.4c-.2.6.1-.1-.1.2a10.911,10.911,0,0,0-.6,1.1,16.444,16.444,0,0,1-1.4,2.2,7.138,7.138,0,0,1-3.9,2.7c-.2.1-.3.1-.1,0l-.4.1h-.7a5.7,5.7,0,0,1-1.3-.1,11.447,11.447,0,0,1-3.6-1.5c-.8-.5-1.9-.9-2.7-.2a33.634,33.634,0,0,1-9.6,6.2,8.873,8.873,0,0,1-3.2.8h-.3c-.3,0-.5-.1-.8-.1-.4-.1-.1,0,0,0-.1,0-.2-.1-.4-.2h0a1.756,1.756,0,0,1-.5-.4c.4.4-.1-.2-.2-.3a5.563,5.563,0,0,1-.4-.8,4.529,4.529,0,0,1-.3-1.6,6.565,6.565,0,0,1,1.3-3.6,13.362,13.362,0,0,1,4.1-4.1c2.2-1.5-.9-5.4-3.1-3.9-3.1,2.1-6.2,4-9.4,5.9-1.6,1-3.2,1.9-4.9,2.9-2.1,1.2-3.3,1.9-5.4,3-4.4,2.4-8.9,4.8-13.4,7a241.353,241.353,0,0,1-32,13.1c-10.9,3.5-22,6.1-33.5,6.3a56.082,56.082,0,0,1-15.3-1.6,32.838,32.838,0,0,1-6.7-2.2,33.577,33.577,0,0,1-3.3-1.6l-1.5-.9c-.5-.3-.1-.1,0,0l-.4-.2-.9-.6c-1-.7-2-1.5-3-2.3-.5-.4-.9-.8-1.4-1.2a4.349,4.349,0,0,0-.7-.6h0l-.5-.5a62.618,62.618,0,0,1-6-7.6,53.189,53.189,0,0,1-7.6-17.2c-2.7-11.3-1.2-23,2.8-34S53.8,316.6,61,307.4a189.876,189.876,0,0,1,20.7-22.3,168.766,168.766,0,0,1,12.9-10.9l.6-.5-2.7-.2,21.8,14.8,34.4,23.4,7.9,5.4-.4-3.7-19.1,17-2.8,2.5c-2,1.8,1.1,5.7,3.1,3.9l19.1-17,2.7-2.4a2.508,2.508,0,0,0-.1-3.5c-.1-.1-.2-.2-.3-.2l-21.7-14.8-34.4-23.4-7.9-5.3a2.265,2.265,0,0,0-2.7-.2c-3.3,2.4-6.4,5.1-9.5,7.7a205.2,205.2,0,0,0-20.8,20.9,132.108,132.108,0,0,0-19.7,29.5c-5.1,11-8.3,23.2-7.3,35.4a57.458,57.458,0,0,0,4.9,18.7,60.77,60.77,0,0,0,11.3,17,46.446,46.446,0,0,0,28.4,13.4c11.6,1.3,23.2-.4,34.4-3.2a203.538,203.538,0,0,0,33.8-12.2A307.785,307.785,0,0,0,175,383.1c4.7-2.7,9.4-5.5,13.9-8.5l.6-.4-3.1-3.9c-5,3.4-8.8,9.9-5.4,15.7,4,6.9,12,3.4,17.1,0a42.907,42.907,0,0,0,4.8-3.6l-2.7-.2c2.7,1.7,5.8,3.1,9.1,2.7a10.606,10.606,0,0,0,6.4-3.6,18.731,18.731,0,0,0,4.1-7.9l-2.8,1.1a7.744,7.744,0,0,0,7.9-.5,16.074,16.074,0,0,0,4.9-6.3,61.241,61.241,0,0,0,4.8-17.2c.2-1.5.5-3.1.6-4.6l-3.9.8a100.007,100.007,0,0,0,7.2,9.9,53.081,53.081,0,0,0,6.5,6.9c1.9,1.6,4.3,3.4,7,3.3,4.6,0,5.7-5.5,5.6-9.1a31.6,31.6,0,0,0-5-15.5,39.432,39.432,0,0,0-15.8-14.5c-7.2-3.6-15.1-4.8-23-5.1-16.2-.7-32.5,1.5-48.4,4.1-6.6,1.1-13.2,2.3-19.7,3.6-3.5.7-7.1,1.4-10.6,2.3l-.5.1c-1.2.3-1.4,2-.9,3A3.372,3.372,0,0,0,136.9,337.1Z" fill="#000005"/>
    <path id="Path_2840" data-name="Path 2840" d="M205,356.9a1.421,1.421,0,0,1,.2.6c.1.1.3.7.1.3l.3.9a18.9,18.9,0,0,1,.8,5.3c.1,6-2.9,11.3-7.1,15.3-1.5,1.4,3,3.4,4.4,2.1,4.6-4.4,7.6-10.1,7.5-16.5a20.64,20.64,0,0,0-1.7-8.1,3.5,3.5,0,0,0-3.1-1.5c-.9,0-1.9.6-1.4,1.6Z" fill="#000005"/>
    <path id="Path_2841" data-name="Path 2841" d="M218.9,349.5a26.885,26.885,0,0,1-3.1,21.4c-.8,1.2,3.3,4,4.1,2.8a28.1,28.1,0,0,0,3.1-22.6,4.06,4.06,0,0,0-2.6-2.2c-.6-.4-1.9-.5-1.5.6Z" fill="#000005"/>
    <path id="Path_2842" data-name="Path 2842" d="M88.1,341.7a34.417,34.417,0,0,1,6.4-1.2c4-.5,7.9-1,11.9-1.5,8.7-1,17.5-1.9,26.2-2.7,2.6-.2,5.2-.5,7.9-.7,1-.1-1.2-4.2-2.5-4.1-6.2.3-12.5,1.1-18.7,1.7-8.8.9-17.5,1.8-26.3,3a39.783,39.783,0,0,0-7.8,1.4c-.8.3,1.5,4.6,2.9,4.1Z" fill="#000005"/>
    <path id="Path_2843" data-name="Path 2843" d="M288.8,316.4l-1.3-45.2c-.1-2.6-5-2.8-5,0l1.3,45.2c.1,2.6,5,2.8,5,0Z" fill="#000005"/>
    <path id="Path_2844" data-name="Path 2844" d="M401,309.8s18.8-60.8,2.8-62.5-22.5,37.1-24.2,42.1c0,0-9.8,5.9-9.8,17.6" fill="#fff"/>
    <path id="Path_2845" data-name="Path 2845" d="M403.2,309.5c1.6-5.2,3-10.5,4.2-15.7,2.3-9.6,4.4-19.5,5-29.4a37.841,37.841,0,0,0-.8-12.1c-.7-2.7-2.3-5.4-5.2-6.3-4.4-1.3-9.3.9-12.5,3.9-3.8,3.4-6.3,8-8.3,12.6a101.967,101.967,0,0,0-5.1,15c-.6,2.2-1.2,4.4-1.7,6.6-.2.9-.4,1.7-.6,2.6-.1.4-.2.7-.3,1l-.1.5c-.1.2-.1.4-.1.2a6.47,6.47,0,0,1-.4,1.3l1.1-1.2a23.291,23.291,0,0,0-11,19.1c0,2,4.7.4,4.7-1.4a19.526,19.526,0,0,1,3.1-10.5,18.851,18.851,0,0,1,2.5-3.1,11.985,11.985,0,0,1,1.2-1.1l.5-.4c.2-.1.8-.6.2-.2l1-.7a2.977,2.977,0,0,0,1.4-2.3c.5-1.7.9-3.4,1.3-5.2a142.184,142.184,0,0,1,4.5-15.4c1.8-5.2,4-10.5,7.6-14.8a12.522,12.522,0,0,1,2.3-2.3l.3-.2c-.1.1-.4.3,0,0l.6-.4.3-.2c.5-.3-.4.2,0,0l.8-.4c.4-.2,0,0-.1,0l.4-.1c.2,0,.3-.1.5-.1a1.268,1.268,0,0,0,.6-.1h1.4c.1,0,.7.1.2,0,.3.1.7.2,1,.3.1,0,.5.2.2.1l.4.3a2.7,2.7,0,0,1,.8.7,2.651,2.651,0,0,1,.5.6c.2.3.4.7.6,1a16.258,16.258,0,0,1,1.4,4.9,64.9,64.9,0,0,1-.2,14.6,163.973,163.973,0,0,1-2.9,16.8c-1.6,7.3-3.5,14.6-5.6,21.8,0,.1-.1.2-.1.4-.7,2.1,4,.8,4.4-.7Z" fill="#000005"/>
    <path id="Path_2846" data-name="Path 2846" d="M200.2,178s-32,2.7-35.7-10.6,16.1-8,16.1-8-20.4-28.6,12-29.8c0,0-24.4-22.6-1.4-38.7s63.2.4,63.2.4,2-28.5,34.1-21.3,22.4,23.3,22.4,23.3,20.6,4.3,20.1,14.2-16.5,11.9-16.5,11.9-8.9,27.2-36.8,20l-31.1,32s8.3,13.8-3.6,25.8S196.8,195.9,200.2,178Z" fill="#000005"/>
    <path id="Path_2847" data-name="Path 2847" d="M200.1,177.5h-1.7c-.8,0-1.6.1-2.4.1h-2.7a62.83,62.83,0,0,1-15-1.8c-4.3-1.1-9.2-3.3-11.1-7.6-.8-2-1.3-4.8-.2-6.8a4.953,4.953,0,0,1,1.9-1.9c.3-.2.7-.3,1-.5a2.92,2.92,0,0,1,.9-.2c.4-.1,0,0-.1,0,.1,0,.8-.1.1,0h2.1l.8.1c.5.1,1.1.1,1.6.2l3,.6a6.608,6.608,0,0,0,2.8,0c.1,0,2-.4,1.8-.6a37.317,37.317,0,0,1-4.8-9.3c-1.8-5-2.6-11.4,1.6-15.5,3.2-3.1,7.9-4.1,12.1-4.2.3,0,3.5-.4,3-.8-8.7-8-15.7-22.3-7.4-33,5.8-7.5,15.6-11.2,24.8-11.9,8.5-.6,17.2.7,25.5,2.7a117.076,117.076,0,0,1,14.2,4.5c.6.2,4.8.4,4.9-.5.6-8,5.4-16.2,12.6-19.8a21.806,21.806,0,0,1,4.5-1.6,16,16,0,0,1,4.9-.4A51.442,51.442,0,0,1,295.2,73c5.8,2.2,12.7,5.9,14.1,12.5a11.663,11.663,0,0,1-1.1,8,.52.52,0,0,0,.4.2c5.5,1.2,11.3,3.2,15.7,6.7,2.8,2.2,4.7,5.3,3.8,9s-4.5,6.2-8,7.7a29.112,29.112,0,0,1-5,1.6l-.5.1c-.4.1.3-.1-.2,0l-.7.1a4.331,4.331,0,0,0-.5.1c-.3.1.7-.1.4-.1s-1.6.1-1.8.6a32.124,32.124,0,0,1-4.3,8.2c-3.6,5.2-8.7,9.6-14.8,11.5-1,.3-2,.5-3,.7a19.418,19.418,0,0,1-2.4.2,33.276,33.276,0,0,1-7.7-1.1,10.454,10.454,0,0,0-2.5,0c-.5.1-1.6.1-2,.5l-10.5,10.8-16.8,17.2-3.9,4-.1.1a21.857,21.857,0,0,1,2.8,10.9c0,6.7-3.7,14.1-9.8,17.2a16.073,16.073,0,0,1-3.3,1.2l-.5.1c-.1,0-.9.1-.6.1-.1,0-1,.1-.6.1h-.7a31.416,31.416,0,0,1-7.5-.9,34.7,34.7,0,0,1-15-7.7c-4.2-3.8-7.2-9.1-6.1-14.9.1-.3-4.8-.6-5,.4-1.9,10.4,8.2,18.1,16.8,21.4a39.663,39.663,0,0,0,16.7,2.7c5-.3,10.3-1.4,14-5a21.265,21.265,0,0,0,6.2-18.7,28.843,28.843,0,0,0-1.8-5.9l-.6-1.2c-.1-.2-.2.2,0-.1a10.708,10.708,0,0,1,1.8-1.9l3.5-3.6,9.7-10c5.2-5.3,10.6-10.5,15.6-16l.3-.3-4.5.4c9.3,2.4,20,1.9,28.3-3.4a34.24,34.24,0,0,0,11.7-13.6,22.768,22.768,0,0,0,1.5-3.6l-1.8.6a45.6,45.6,0,0,0,7.5-1.8c3.6-1.2,7.5-3.2,9.5-6.6,5-8.2-5.2-13.8-11.6-16.2a64.948,64.948,0,0,0-7.5-2.3l.4.2a11.383,11.383,0,0,0,1.3-7.2c-1-6.8-7.8-10.8-13.5-13.2-9.9-4-21.8-6.1-32.2-3a22.924,22.924,0,0,0-13.9,11.6,25.688,25.688,0,0,0-3,10.1l4.9-.5a111.835,111.835,0,0,0-40.4-7.6c-10.4.2-21.3,2.3-29.5,9-3.7,3-6.7,7-7.6,11.8a20.978,20.978,0,0,0,1.3,11.6,39.554,39.554,0,0,0,9.7,14.1l3-.8c-7.6.3-19.1,1.5-21.2,10.5-1.3,5.5,1.1,11.4,3.7,16.1.7,1.3,1.5,2.5,2.3,3.8l4.6-.6a36.465,36.465,0,0,0-10.4-1.1c-4.6.2-11.1,1.2-10.8,7.2.3,5.5,4.7,8.8,9.5,10.6a56.677,56.677,0,0,0,17.4,2.9,92.96,92.96,0,0,0,11.8-.2c.3,0,2.5-.1,2.5-.6S200.3,177.5,200.1,177.5Z" fill="#000005"/>
    <path id="Path_2848" data-name="Path 2848" d="M310.5,213c20.8-22,1-88.9,1-88.9-22.8,2.8-57.3-22.5-57.3-22.5,9.3,21.9-13.4,59.1-13.4,59.1-7.8-19.6-28.2-20.3-27.6-1.4S231.8,181,231.8,181s-8.4,31.9-6.9,39.4,39.6,46.1,53.3,10.2A60.725,60.725,0,0,0,310.5,213Z" fill="#fff"/>
    <path id="Path_2849" data-name="Path 2849" d="M312.7,213.3c4.5-4.8,6.9-11.1,8.2-17.5a94.021,94.021,0,0,0,1.5-22.5,211.5,211.5,0,0,0-6.2-41.1c-.7-2.9-1.4-5.8-2.2-8.6-.3-1-1.8-1-2.7-1a32.1,32.1,0,0,1-6.2,0,60.216,60.216,0,0,1-7.4-1.3,85.614,85.614,0,0,1-14.4-5.2,152.026,152.026,0,0,1-22.6-12.7c-1.5-1-3-2-4.4-3.1-1.1-.8-5.2-.3-4.4,1.6,3.8,9.1,2,19.9-.6,29a124.213,124.213,0,0,1-10.1,24.4c-.6,1.2-1.3,2.4-1.9,3.5-.2.3-.4.7-.6,1h4.7c-2.5-6.3-6.8-12.1-13.2-14.8-5.1-2.2-11.5-1.7-15.6,2.3-4.5,4.4-4.5,12.2-3,17.9a22.485,22.485,0,0,0,9.9,13.1,23.6,23.6,0,0,0,9.1,3.5l-1.3-1.3c-1.6,6.1-3,12.2-4.3,18.4a126.594,126.594,0,0,0-2.4,13.7c-.3,2.6-.9,5.9,0,8.5a22.886,22.886,0,0,0,4.2,6.4,62,62,0,0,0,8.2,8c6.2,5.2,13.9,10,22.1,10.9a21.787,21.787,0,0,0,12.3-2.1,22.661,22.661,0,0,0,9.4-10.2c.7-1.3,1.2-2.6,1.8-3.9l-2.3,1.3a44.308,44.308,0,0,0,7.8-1.9,68.03,68.03,0,0,0,16.5-8,64.53,64.53,0,0,0,10.2-8.6c.8-.8-.4-1.5-1.1-1.6a3.932,3.932,0,0,0-3.3.9,57.662,57.662,0,0,1-28.5,16.3l-.5.1c-.6.1.3-.1,0,0l-.7.1-.6.1a2.772,2.772,0,0,0-2.3,1.3c-1.6,4.2-3.9,8.5-7.6,11.3a8.175,8.175,0,0,1-2,1.2,6.117,6.117,0,0,1-1.2.5c-.6.3.4-.1-.2.1a2.353,2.353,0,0,1-.8.2l-.6.2c-.7.2.5-.1-.2,0-.4.1-.8.1-1.2.2h-2.5c-.7,0,.5.1-.2,0l-.6-.1c-.4-.1-.9-.1-1.3-.2a22.676,22.676,0,0,1-2.5-.6,38.879,38.879,0,0,1-5.1-2.1,50.917,50.917,0,0,1-10-6.6,68.249,68.249,0,0,1-7.8-7.4,33.248,33.248,0,0,1-4.4-6.2c0-.1-.1-.2-.1-.3h0a2.567,2.567,0,0,0-.2-.5,7.719,7.719,0,0,1-.2-1.5,23.293,23.293,0,0,1,.2-4.6,108.474,108.474,0,0,1,2.1-12.7q2.1-10.35,4.8-20.4c.2-.8-.7-1.2-1.3-1.3l-.5-.1-.5-.1c-.4-.1.4.1.1,0l-.5-.1a15.871,15.871,0,0,1-2-.7c-.7-.3-1.8-.7-2.1-.9a20.57,20.57,0,0,1-9.6-9.5c-2.4-5-3.2-12.1-.6-17.2a9.664,9.664,0,0,1,1.9-2.6,6.251,6.251,0,0,1,2-1.3c.4-.2-.2,0,.3-.1a6.369,6.369,0,0,1,.7-.2c-.6.1.2,0,.3,0H224a10.626,10.626,0,0,1,1.4.3c6.3,1.9,10.7,7.9,13.1,13.8.6,1.5,3.9,1.3,4.7,0a128.224,128.224,0,0,0,7.3-14.3c4.1-9.3,7.5-19.2,8.4-29.4a35.194,35.194,0,0,0-2.2-16.4l-4.4,1.6a145.1,145.1,0,0,0,13.4,8.6c9,5.2,18.5,10,28.6,12.6a46.674,46.674,0,0,0,17.4,1.6l-2.6-1a194.934,194.934,0,0,1,5.4,23.8,205.329,205.329,0,0,1,2.8,22.1,101.316,101.316,0,0,1-.7,22.7c-1.1,7-3.3,14.3-8.3,19.6-.8.9.4,1.5,1.1,1.6A3.281,3.281,0,0,0,312.7,213.3Z" fill="#000005"/>
    <path id="Path_2850" data-name="Path 2850" d="M263.2,182.4c-.4-.1.8.4.4.1l-.6-.3c-.3-.2-.6-.3-.9-.5l-.2-.1-.1-.1c-.3-.2.4.2.3.2-.2-.1-.4-.3-.6-.4-.4-.3-.7-.6-1.1-.9l-.1-.1.2.2-.2-.2a2.651,2.651,0,0,1-.5-.6c-.1-.1-.2-.2-.2-.3s-.3-.4-.1-.1,0-.1-.1-.1l-.2-.4a4.872,4.872,0,0,1-.3-.7c0-.1,0-.1-.1-.2-.1-.2.1.2,0,.2s-.1-.4-.1-.5a3.4,3.4,0,0,1-.1-1v-.7a6.311,6.311,0,0,1,.8-2.3,1.249,1.249,0,0,0-.4-1.3,3.072,3.072,0,0,0-1.5-1c-1-.3-2.4-.3-2.9.8a8.677,8.677,0,0,0-.9,4.5,9.33,9.33,0,0,0,1.5,3.9,13.79,13.79,0,0,0,5.2,4.4,14.168,14.168,0,0,0,1.8.8c.9.3,2.5.3,2.9-.8s-1.1-2.2-1.9-2.5Z" fill="#000005"/>
    <path id="Path_2851" data-name="Path 2851" d="M304.4,156.4s-.5,3.6,3.1,3.8,3.8-4.2.8-5.3S304.4,156.4,304.4,156.4Z" fill="#000005"/>
    <path id="Path_2852" data-name="Path 2852" d="M287.7,153.1a8.318,8.318,0,0,0-2-3,10.145,10.145,0,0,0-3.5-2.3,3.722,3.722,0,0,0-1.8-.2,5.662,5.662,0,0,0-1.8.3c-.2.1-.8.3-.7.6s.5.5.7.6c-.5-.2-.2-.1,0,0l.3.1.5.3c.3.2.7.5,1,.7l-.3-.2a9.118,9.118,0,0,1,2.7,3.7c.1.3.9.5,1.2.5a12.1,12.1,0,0,0,1.9.1,4.191,4.191,0,0,0,1.5-.4l.2-.2a.471.471,0,0,0,.1-.6Z" fill="#000005"/>
    <circle id="Ellipse_85" data-name="Ellipse 85" cx="64.6" cy="64.6" r="64.6" transform="translate(275.263 160.097) rotate(-45)" fill="#fff"/>
    <path id="Path_2853" data-name="Path 2853" d="M422.5,184a64.091,64.091,0,0,1-4.5,9.1l-.6,1-.3.4c.1-.1.5-.8,0-.1a22.629,22.629,0,0,0-1.3,2q-1.35,1.95-3,3.9l-1.5,1.8c-.3.3-.5.6-.8.9l.2-.2-.5.5c-1.1,1.1-2.3,2.3-3.5,3.3l-1.8,1.5-.9.7-.4.3-.3.2c-.3.2-.2.1.4-.3-.3-.1-1.6,1.1-1.9,1.4-.6.4-1.3.9-1.9,1.3a33.76,33.76,0,0,1-4.1,2.4c-1.1.6.7-.4-.1.1l-1,.5c-.7.4-1.5.7-2.2,1.1-1.5.7-2.9,1.2-4.4,1.8l-1.1.4-.5.2c-.6.2.9-.3.2-.1-.8.2-1.6.5-2.4.7-1.5.4-3,.8-4.5,1.1-.8.1-1.5.3-2.3.4l-1.1.2-.7.1c-.6.1.7-.1.1,0a77.877,77.877,0,0,1-9.7.4c-.8,0-1.6-.1-2.4-.1l-1.2-.1h-.2c.4,0-.5-.1-.5-.1-1.6-.2-3.2-.4-4.7-.7a53.619,53.619,0,0,1-9.7-2.7c-.8-.3-1.5-.6-2.3-.9l-.5-.2-.2-.1-1.3-.6c-1.5-.7-3-1.5-4.5-2.3a63.372,63.372,0,0,1-8.1-5.4,58.548,58.548,0,0,1-12.8-13.5,68.289,68.289,0,0,1-4.9-8.2c-.7-1.4-1.4-2.9-2-4.4a12.07,12.07,0,0,0-.8-1.9,17.079,17.079,0,0,1-.7-2.1,66.659,66.659,0,0,1-3.1-18.8,68.026,68.026,0,0,1,.6-9,66.061,66.061,0,0,1,2.2-9.8,5.639,5.639,0,0,1,.4-1.2c.1-.2.4-1.2.2-.6.3-.8.6-1.7.9-2.5a48.4,48.4,0,0,1,2.1-4.7c.8-1.6,1.5-2.9,2.3-4.3l.6-1c.1-.1.5-.7.2-.3s0,0,.1-.1c.5-.7.9-1.4,1.4-2.1q1.35-1.95,3-3.9l1.5-1.8c.1-.1,1-1.1.5-.5s.5-.5.6-.6a36.06,36.06,0,0,1,3.5-3.3,20.024,20.024,0,0,1,1.6-1.4l.9-.7.5-.4c.6-.5-.2.2-.3.2.3.1,1.6-1.2,1.9-1.4.7-.5,1.4-.9,2.1-1.4a43.61,43.61,0,0,1,4.1-2.4c.8-.4-1,.5.1-.1l1-.5a21.4,21.4,0,0,1,2.2-1,40.726,40.726,0,0,1,4.4-1.8l.9-.3a1.421,1.421,0,0,1,.6-.2s-.9.3-.4.1c.8-.2,1.6-.5,2.4-.7,1.5-.4,3.1-.8,4.7-1.1a18.457,18.457,0,0,1,2.3-.4l1.1-.2.5-.1c.5-.1-.8.1,0,0,1.6-.2,3.2-.3,4.8-.4a40.045,40.045,0,0,1,4.9,0c.7,0,1.5.1,2.2.1l1.2.1c.1,0,.7.1,0,0l.7.1a65.24,65.24,0,0,1,9.8,1.9c1.6.4,3.2,1,4.8,1.5.7.3,1.4.5,2.1.8l.7.3c-.1,0-.4-.2,0,0s.9.4,1.3.6a58.134,58.134,0,0,1,8.8,4.9,73.611,73.611,0,0,1,7.8,6,55.587,55.587,0,0,1,6.2,6.6,63.6,63.6,0,0,1,9.6,16.3,65.513,65.513,0,0,1,2.9,8.5,74.973,74.973,0,0,1,1.5,9.3c.1,1.6.2,3.2.2,4.8v3a7.084,7.084,0,0,1-.1,1.4,64.262,64.262,0,0,1-1.4,9.8,37.445,37.445,0,0,1-1.2,4.5,5.639,5.639,0,0,1-.4,1.2,6.372,6.372,0,0,0-.2.7s-.2.6-.1.2-.1.3-.1.4a1.69,1.69,0,0,1-.2.5,1.342,1.342,0,0,1-.2,1.5,2.371,2.371,0,0,0,.6,3.2,2.319,2.319,0,0,0,1.8.4c2.2-.1,5.1-1.6,6-3.8a66.751,66.751,0,0,0-36.6-87,70.134,70.134,0,0,0-19.6-4.7,71.734,71.734,0,0,0-70.1,39.7,68.768,68.768,0,0,0-6.1,40.9,66.324,66.324,0,0,0,54.6,54.7,70.726,70.726,0,0,0,41.3-5.6,73.372,73.372,0,0,0,32-28.9,76.9,76.9,0,0,0,4.5-9.1,2.678,2.678,0,0,0,.1-2.6,2.8,2.8,0,0,0-2.4-1C426.3,180.2,423.4,181.8,422.5,184Z" fill="#2462eb"/>
    <path id="Path_2854" data-name="Path 2854" d="M365.8,149.2s-12.4-6.8-17.9,5.6,9.8,19.3,17.9,10.2S365.8,149.2,365.8,149.2Z" fill="#000005"/>
    <path id="Path_2855" data-name="Path 2855" d="M403.1,139.6a43.641,43.641,0,0,1-3.4,29.3c-.5,1,1.5,1.1,2,1.1,1-.1,2.4-.4,2.9-1.4a45.079,45.079,0,0,0,3.5-30c-.5-1.6-5.3-.7-5,1Z" fill="#2462eb"/>
    <path id="Path_2856" data-name="Path 2856" d="M395.1,185.1l2.6-4.4c.1-.2.2-.5-.1-.6a.9.9,0,0,0-.5.1,1.854,1.854,0,0,0-.7.2,15.056,15.056,0,0,0-1.7,1,3.838,3.838,0,0,0-1.1,1.1l-2.6,4.4c-.1.2-.2.5.1.6h.5c.2-.1.5-.1.7-.2a15.056,15.056,0,0,0,1.7-1,11.992,11.992,0,0,0,1.1-1.2Z" fill="#2462eb"/>
    <path id="Path_2857" data-name="Path 2857" d="M284.7,194.3s36.9,26.2,54.6,9.2-10-42.6-41.3-36.9" fill="#fff"/>
    <path id="Path_2858" data-name="Path 2858" d="M282.9,196a92.844,92.844,0,0,0,12.9,7.6c8.3,4.1,17.5,7.5,26.8,7.6,9.6,0,19.8-5.1,23.3-14.4,3.4-9-1.9-17.7-8.9-23.3-9.3-7.3-21.9-10.2-33.5-9.2a44.618,44.618,0,0,0-5.1.7,3.263,3.263,0,0,0-2.5,2.3c-.2,1.2,1,1.3,1.8,1.1a46.222,46.222,0,0,1,32.7,6.1c6.6,4.2,13.6,11.7,12.1,20.2a12.433,12.433,0,0,1-2.1,5.2,16.373,16.373,0,0,1-4.1,4.2,14.919,14.919,0,0,1-4.9,2.4,29,29,0,0,1-5.9.9c-8.5.2-17-2.9-24.6-6.5a94.193,94.193,0,0,1-14.4-8.3c-1.5-1-5.4,2.1-3.6,3.4Z" fill="#000005"/>
  </g>
</svg>
